<svg width="17" height="18" viewBox="0 0 17 18" fill="none" xmlns="http://www.w3.org/2000/svg">
<path fill-rule="evenodd" clip-rule="evenodd" d="M5.65116 0C5.99795 0 6.27907 0.281124 6.27907 0.627907V1.6833C6.83936 1.67442 7.46191 1.67442 8.15353 1.67442H8.17205C8.86367 1.67442 9.48622 1.67442 10.0465 1.6833V0.627907C10.0465 0.281124 10.3276 0 10.6744 0C11.0212 0 11.3023 0.281124 11.3023 0.627907V1.72765C12.5681 1.807 13.5406 2.0121 14.3412 2.5938C14.7499 2.89072 15.1093 3.25012 15.4062 3.6588C15.8967 4.33386 16.1163 5.12451 16.222 6.10031C16.3256 7.05651 16.3256 8.26175 16.3256 9.79931V9.8468C16.3256 10.8179 16.3256 11.6528 16.301 12.3703C16.2473 13.9388 16.0775 15.0916 15.4062 16.0156C15.1093 16.4243 14.7499 16.7837 14.3412 17.0806C13.4172 17.7519 12.2644 17.9217 10.6959 17.9754C9.97821 18 9.14313 18 8.17182 18H8.12489C6.58733 18 5.38209 18 4.42589 17.8964C3.45009 17.7907 2.65944 17.5711 1.98438 17.0806C1.5757 16.7837 1.21631 16.4243 0.919383 16.0156C0.428922 15.3406 0.209307 14.5499 0.103586 13.5741C-1.22633e-05 12.6179 -6.82311e-06 11.4127 1.13211e-07 9.87509V9.79932C-6.82311e-06 8.26176 -1.22633e-05 7.05651 0.103586 6.10031C0.209307 5.12451 0.428922 4.33386 0.919383 3.6588C1.21631 3.25012 1.5757 2.89072 1.98438 2.5938C2.78502 2.0121 3.75747 1.807 5.02326 1.72765V0.627907C5.02326 0.281124 5.30438 0 5.65116 0ZM5.02326 2.98654C3.88293 3.06496 3.22474 3.2449 2.72253 3.60978C2.42046 3.82924 2.15482 4.09488 1.93536 4.39695C1.62636 4.82226 1.44624 5.36662 1.35209 6.23557C1.25668 7.11627 1.25581 8.25357 1.25581 9.83721C1.25581 11.4209 1.25668 12.5581 1.35209 13.4388C1.44624 14.3078 1.62636 14.8522 1.93536 15.2775C2.15482 15.5795 2.42046 15.8452 2.72253 16.0646C3.14784 16.3736 3.6922 16.5538 4.56115 16.6479C5.44185 16.7433 6.57915 16.7442 8.16279 16.7442C8.87304 16.7442 9.49545 16.7441 10.048 16.7351C10.0517 16.3377 10.0641 16.0452 10.1058 15.7818C10.432 13.722 12.0475 12.1064 14.1074 11.7802C14.3708 11.7385 14.6633 11.7261 15.0607 11.7225C15.0697 11.1699 15.0698 10.5475 15.0698 9.83721C15.0698 8.25357 15.0689 7.11627 14.9735 6.23557C14.8793 5.36662 14.6992 4.82226 14.3902 4.39695C14.1708 4.09488 13.9051 3.82924 13.603 3.60978C13.1008 3.2449 12.4426 3.06496 11.3023 2.98654V3.13953C11.3023 3.48632 11.0212 3.76744 10.6744 3.76744C10.3276 3.76744 10.0465 3.48632 10.0465 3.13953V2.93926C9.4943 2.93027 8.87238 2.93023 8.16279 2.93023C7.4532 2.93023 6.83128 2.93027 6.27907 2.93926V3.13953C6.27907 3.48632 5.99795 3.76744 5.65116 3.76744C5.30438 3.76744 5.02326 3.48632 5.02326 3.13953V2.98654ZM15.0133 12.9791C14.6743 12.983 14.4755 12.9934 14.3038 13.0206C12.7813 13.2617 11.5873 14.4558 11.3461 15.9783C11.3189 16.1499 11.3086 16.3487 11.3047 16.6877C12.4435 16.6092 13.1012 16.4293 13.603 16.0646C13.9051 15.8452 14.1708 15.5795 14.3902 15.2775C14.7549 14.7756 14.9348 14.118 15.0133 12.9791Z" fill="#92929D"/>
<path d="M4.81395 6.48837C4.81395 6.95075 4.43912 7.32558 3.97674 7.32558C3.51437 7.32558 3.13954 6.95075 3.13954 6.48837C3.13954 6.02599 3.51437 5.65116 3.97674 5.65116C4.43912 5.65116 4.81395 6.02599 4.81395 6.48837Z" fill="#92929D"/>
<path d="M4.81395 9.83721C4.81395 10.2996 4.43912 10.6744 3.97674 10.6744C3.51437 10.6744 3.13954 10.2996 3.13954 9.83721C3.13954 9.37483 3.51437 9 3.97674 9C4.43912 9 4.81395 9.37483 4.81395 9.83721Z" fill="#92929D"/>
<path d="M9 6.48837C9 6.95075 8.62517 7.32558 8.16279 7.32558C7.70041 7.32558 7.32558 6.95075 7.32558 6.48837C7.32558 6.02599 7.70041 5.65116 8.16279 5.65116C8.62517 5.65116 9 6.02599 9 6.48837Z" fill="#92929D"/>
<path d="M9 9.83721C9 10.2996 8.62517 10.6744 8.16279 10.6744C7.70041 10.6744 7.32558 10.2996 7.32558 9.83721C7.32558 9.37483 7.70041 9 8.16279 9C8.62517 9 9 9.37483 9 9.83721Z" fill="#92929D"/>
<path d="M9 13.186C9 13.6484 8.62517 14.0233 8.16279 14.0233C7.70041 14.0233 7.32558 13.6484 7.32558 13.186C7.32558 12.7237 7.70041 12.3488 8.16279 12.3488C8.62517 12.3488 9 12.7237 9 13.186Z" fill="#92929D"/>
<path d="M13.186 6.48837C13.186 6.95075 12.8112 7.32558 12.3488 7.32558C11.8865 7.32558 11.5116 6.95075 11.5116 6.48837C11.5116 6.02599 11.8865 5.65116 12.3488 5.65116C12.8112 5.65116 13.186 6.02599 13.186 6.48837Z" fill="#92929D"/>
<path d="M13.186 9.83721C13.186 10.2996 12.8112 10.6744 12.3488 10.6744C11.8865 10.6744 11.5116 10.2996 11.5116 9.83721C11.5116 9.37483 11.8865 9 12.3488 9C12.8112 9 13.186 9.37483 13.186 9.83721Z" fill="#92929D"/>
<path d="M4.81395 13.186C4.81395 13.6484 4.43912 14.0233 3.97674 14.0233C3.51437 14.0233 3.13954 13.6484 3.13954 13.186C3.13954 12.7237 3.51437 12.3488 3.97674 12.3488C4.43912 12.3488 4.81395 12.7237 4.81395 13.186Z" fill="#92929D"/>
</svg>
