<svg width="73" height="45" viewBox="0 0 73 45" fill="none" xmlns="http://www.w3.org/2000/svg">
<path d="M53.7267 4.32097C48.2812 1.40575 42.1849 -0.0798438 36.0086 0.00330747C29.8324 0.0864588 23.7783 1.73563 18.4132 4.7964L21.8418 10.8063C26.1899 8.32574 31.0964 6.9892 36.1018 6.92181C41.1072 6.85442 46.0479 8.05839 50.4611 10.421L53.7267 4.32097Z" fill="#FBBC04"/>
<path d="M73 36.5C73 30.4852 71.5136 24.5635 68.6729 19.2618C65.8322 13.96 61.7253 9.4424 56.7174 6.11076L52.8849 11.8715C56.9434 14.5716 60.2718 18.2328 62.574 22.5295C64.8762 26.8263 66.0809 31.6254 66.0809 36.5H73Z" fill="#008738"/>
<path d="M0 36.5C5.124e-07 30.6388 1.41149 24.8639 4.1151 19.6635C6.8187 14.4631 10.7349 9.99032 15.5325 6.62336L19.5072 12.2869C15.6191 15.0156 12.4452 18.6405 10.2541 22.8551C8.06305 27.0697 6.91913 31.7499 6.91913 36.5H0Z" fill="#FE0102"/>
<path d="M38.2809 36.2842C40.4148 36.856 41.6811 39.0493 41.1093 41.1832C40.5376 43.317 38.3442 44.5834 36.2104 44.0116C34.0765 43.4398 32.8102 41.2465 33.3819 39.1126C33.9537 36.9788 36.1471 35.7124 38.2809 36.2842ZM36.8311 41.6951C37.6856 41.9241 38.5639 41.417 38.7929 40.5625C39.0219 39.708 38.5148 38.8296 37.6602 38.6006C36.8057 38.3717 35.9274 38.8788 35.6984 39.7333C35.4694 40.5878 35.9765 41.4662 36.8311 41.6951Z" fill="black"/>
<path d="M36.6704 9.45315L34.9949 36.9566L39.1174 37.026L36.6704 9.45315Z" fill="black"/>
</svg>
