<svg width="73" height="37" viewBox="0 0 73 37" fill="none" xmlns="http://www.w3.org/2000/svg">
<path d="M53.7267 4.32097C48.2812 1.40575 42.1849 -0.0798438 36.0086 0.00330747C29.8324 0.0864588 23.7783 1.73563 18.4132 4.7964L21.8418 10.8063C26.1899 8.32574 31.0964 6.9892 36.1018 6.92181C41.1072 6.85442 46.0479 8.05839 50.4611 10.421L53.7267 4.32097Z" fill="#FBBC04"/>
<path d="M73 36.5C73 30.4852 71.5136 24.5635 68.6729 19.2618C65.8322 13.96 61.7253 9.4424 56.7174 6.11076L52.8849 11.8715C56.9434 14.5716 60.2718 18.2328 62.574 22.5295C64.8762 26.8263 66.0809 31.6254 66.0809 36.5H73Z" fill="#008738"/>
<path d="M0 36.5C5.124e-07 30.6388 1.41149 24.8639 4.1151 19.6635C6.8187 14.4631 10.7349 9.99032 15.5325 6.62336L19.5072 12.2869C15.6191 15.0156 12.4452 18.6405 10.2541 22.8551C8.06305 27.0697 6.91913 31.7499 6.91913 36.5H0Z" fill="#FE0102"/>
<path d="M41 29.5C41 31.7091 39.2091 33.5 37 33.5C34.7909 33.5 33 31.7091 33 29.5C33 27.2909 34.7909 25.5 37 25.5C39.2091 25.5 41 27.2909 41 29.5ZM35.3982 29.5C35.3982 30.3847 36.1153 31.1018 37 31.1018C37.8847 31.1018 38.6018 30.3847 38.6018 29.5C38.6018 28.6153 37.8847 27.8982 37 27.8982C36.1153 27.8982 35.3982 28.6153 35.3982 29.5Z" fill="black"/>
<path d="M66.5 21L39.5 26.5L40.5 30.5L66.5 21Z" fill="black"/>
</svg>
