<svg width="710" height="1024" viewBox="0 0 710 1024" fill="none" xmlns="http://www.w3.org/2000/svg">
<mask id="mask0_43_1090" style="mask-type:alpha" maskUnits="userSpaceOnUse" x="0" y="0" width="716" height="1024">
<rect width="716" height="1024" fill="#008738"/>
</mask>
<g mask="url(#mask0_43_1090)">
<rect width="716" height="1024" fill="#008738"/>
<g opacity="0.7">
<mask id="mask1_43_1090" style="mask-type:alpha" maskUnits="userSpaceOnUse" x="-159" y="0" width="977" height="1021">
<rect x="-159" width="977" height="1021" rx="15" fill="#139248"/>
</mask>
<g mask="url(#mask1_43_1090)">
<path d="M693.152 2.19531H813.706C813.706 2.19531 817.17 2.19531 817.17 7.05648L823.405 23.7233C830.334 41.3161 836.569 59.3719 842.112 77.8906C842.112 89.0018 847.655 100.113 849.733 110.53C851.812 120.947 853.198 125.113 855.276 132.752C860.024 154.181 870.572 173.884 885.761 189.697L898.232 202.892L918.324 223.725C937.752 248.336 948.909 278.481 950.195 309.837V317.476C950.195 335.532 953.659 354.282 957.123 373.033C965.155 415.941 970.478 459.315 973.058 502.895C973.464 517.832 976.271 532.605 981.372 546.646C984.246 555.4 989.329 563.261 996.127 569.466C1002.92 575.672 1011.21 580.011 1020.17 582.063H1034.03C1049.18 581.665 1063.78 576.298 1075.6 566.785C1095.49 550.685 1109.99 528.878 1117.17 504.284C1123.59 481.696 1126.85 458.325 1126.87 434.839C1126.56 417.614 1127.95 400.4 1131.03 383.449C1136.25 347.405 1154.49 314.537 1182.3 291.087C1192.69 282.754 1204.47 274.42 1215.55 266.781L1223.17 261.92C1239.35 248.954 1251.39 231.52 1257.79 211.773C1264.19 192.026 1264.68 170.831 1259.2 150.808C1257.13 147.222 1254.57 143.949 1251.58 141.086C1247.01 135.951 1241.48 131.773 1235.3 128.794C1229.11 125.814 1222.4 124.091 1215.55 123.724C1206.32 123.106 1197.07 123.106 1187.84 123.724H1158.05C1148.21 123.612 1138.42 122.211 1128.95 119.558C1090 108.224 1055.74 84.6007 1031.26 52.1959C1021.17 39.4427 1013.22 25.1369 1007.7 9.83428C1007.7 9.83428 1007.7 9.83428 1007.7 4.97312H1064.51C1066.65 6.59309 1068.32 8.74884 1069.36 11.2232C1076.51 26.5087 1086.64 40.2042 1099.15 51.5014C1121.88 70.8593 1151.12 80.7946 1180.91 79.2795H1198.92L1251.58 71.6405C1263.58 72.3623 1275.61 72.3623 1287.61 71.6405C1292.23 70.1884 1296.46 67.6748 1299.95 64.2994C1303.43 60.9239 1306.09 56.7797 1307.7 52.1959C1311.41 40.4381 1313.97 28.3427 1315.32 16.0844C1315.32 16.0844 1315.32 9.83428 1315.32 7.75093H1368.67C1370.81 9.3709 1372.48 11.5267 1373.52 14.001C1380.49 24.2048 1390.06 32.3562 1401.23 37.6124C1410.94 41.7011 1420.89 45.1801 1431.02 48.0291H1440.72C1453.72 51.2491 1466.45 55.4272 1478.83 60.5293C1493.94 66.6888 1506.61 77.6731 1514.86 91.7796C1527.13 113.971 1531.76 139.602 1528.02 164.697C1526.45 182.122 1520.64 198.896 1511.1 213.546C1501.56 228.196 1488.57 240.276 1473.29 248.726C1450.74 261.293 1427.08 271.754 1402.62 279.976H1390.15C1376.13 283.35 1362.45 287.999 1349.27 293.865C1337.83 298.458 1327.81 306.028 1320.26 315.794C1312.71 325.56 1307.9 337.168 1306.31 349.421C1304.96 362.117 1304.96 374.921 1306.31 387.616V394.561C1306.55 407.704 1308.41 420.766 1311.86 433.45C1322.42 472.476 1347.13 506.151 1381.14 527.895C1400.93 540.585 1421.52 551.952 1442.8 561.924L1458.04 569.562C1478.55 579.569 1498.25 591.179 1516.94 604.285C1526.76 609.833 1535.08 617.699 1541.19 627.202V757.759H1537.72C1522.48 744.564 1510.01 732.759 1498.92 722.342C1476.64 699.361 1455.82 675.008 1436.57 649.424C1420.99 628.697 1403.85 609.195 1385.3 591.091L1372.83 579.979C1358.97 566.785 1343.73 552.896 1329.87 537.618C1315.28 521.279 1302.93 503.063 1293.15 483.45C1279.19 455.883 1269.39 426.396 1264.05 395.95C1262.27 380.111 1258.78 364.511 1253.66 349.421C1251.91 344.17 1248.57 339.602 1244.09 336.362C1239.62 333.121 1234.24 331.374 1228.72 331.366H1221.79C1215.63 332.584 1209.76 334.939 1204.47 338.31C1188.6 348.997 1177.06 365 1171.9 383.449C1165.93 402.813 1162.67 422.911 1162.2 443.172V452.2C1159.08 489.425 1147.72 525.485 1128.95 557.757C1116.54 579.937 1098.95 598.764 1077.68 612.619C1059.33 623.841 1038.19 629.62 1016.71 629.285C1006.73 629.561 996.755 628.863 986.915 627.202C977.3 626.215 968.22 622.287 960.908 615.951C953.595 609.615 948.404 601.178 946.038 591.785C943.16 580.423 941.534 568.779 941.188 557.062C941.188 546.646 941.188 536.229 941.188 525.812C941.188 515.395 941.188 502.895 941.188 490.395C939.505 466.692 934.61 443.329 926.638 420.95C916.841 394.275 905.268 368.291 891.996 343.171C881.114 316.033 860.984 293.641 835.184 279.976C826.33 274.597 816.387 271.275 806.084 270.254C794.306 270.254 784.607 277.198 773.521 293.865C758.087 318.197 740.954 341.403 722.251 363.31C702.838 384.639 681.755 404.378 659.203 422.339C638.264 438.097 621.004 458.24 608.626 481.367C608.626 487.617 602.39 493.867 599.619 500.812C596.847 507.756 591.305 518.173 586.455 526.507C572.323 555.406 547.448 577.596 517.171 588.313L490.15 596.646L452.737 609.146C434.74 615.175 418.406 625.353 405.049 638.861C391.692 652.37 381.685 668.833 375.832 686.925C367.922 707.716 365.534 730.21 368.904 752.203C372.364 770.957 380.732 788.452 393.153 802.898C418.735 832.223 441.905 863.576 462.437 896.649C467.902 906.572 474.405 915.884 481.836 924.427C486.748 931.309 493.182 936.958 500.634 940.934C508.086 944.909 516.354 947.103 524.792 947.344C551.306 945.585 576.122 933.645 594.076 914.011C610.205 897.045 623.118 877.278 632.182 855.677C646.231 826.903 665.496 800.999 688.995 779.287L758.279 718.87L795.692 685.536C816.723 664.506 844.98 652.332 874.675 651.508H880.911C889.064 651.337 897.152 652.994 904.584 656.358C912.016 659.722 918.604 664.709 923.867 670.953C931.364 679.407 937.448 689.022 941.881 699.425L950.195 716.786C959.481 737.03 969.89 756.737 981.372 775.815C992.174 793.679 1006.86 808.871 1024.33 820.26C1036.61 827.986 1050.72 832.3 1065.21 832.76C1074.26 832.65 1083.2 830.763 1091.53 827.204C1099.72 823.974 1107.6 820.023 1115.09 815.398L1128.95 806.371C1140.73 799.426 1152.5 791.787 1164.28 786.232C1181.18 777.349 1199.93 772.59 1219.02 772.342C1226.84 771.325 1234.75 771.325 1242.57 772.342C1259.97 775.072 1276.05 783.267 1288.5 795.748C1300.96 808.229 1309.13 824.35 1311.86 841.788C1314.33 858.13 1314.33 874.752 1311.86 891.094C1310.63 905.726 1304.8 919.591 1295.21 930.696C1285.63 941.801 1272.78 949.574 1258.51 952.9C1242.27 955.893 1225.82 957.519 1209.32 957.761H1153.89C1140.03 959.307 1126.67 963.829 1114.71 971.02C1102.76 978.21 1092.49 987.9 1084.61 999.428C1078.27 1008.44 1073.15 1018.25 1069.36 1028.6C1069.4 1032.31 1068.08 1035.91 1065.66 1038.72C1063.23 1041.54 1059.87 1043.37 1056.2 1043.87H986.915C986.588 1042.74 986.588 1041.54 986.915 1040.4C987.249 1037.63 987.249 1034.84 986.915 1032.07C986.915 1032.07 986.915 1026.51 986.915 1023.04C987.204 999.793 989.056 976.592 992.458 953.594C995.185 938.259 992.228 922.453 984.144 909.15C975.485 892.741 967.849 875.81 961.28 858.455L947.423 835.538C939.802 815.398 931.488 795.259 921.788 775.12C914.148 759.262 904.355 744.539 892.689 731.37C887.355 724.983 880.672 719.864 873.124 716.381C865.576 712.898 857.35 711.139 849.04 711.231C833.896 712.169 819.289 717.209 806.777 725.814C787.378 738.314 769.364 752.898 751.35 766.787L739.572 775.815C721.985 789.262 705.95 804.635 691.766 821.649C676.547 842.977 664.418 866.357 655.739 891.094C640.786 927.901 619.44 961.759 592.69 991.095C579.439 1004.64 569.895 1021.39 564.977 1039.71C565.673 1041.49 565.673 1043.48 564.977 1045.26H475.601V1041.1C468.987 1023.2 457.159 1007.72 441.652 996.65L432.645 986.234C417.682 974.988 403.343 962.932 389.689 950.122C369.269 928.602 350.726 905.369 334.262 880.677C320.226 858.709 302.395 839.426 281.606 823.732C271.261 816.194 261.739 807.581 253.2 798.037C236.572 779.981 221.329 761.231 206.087 742.481L191.537 724.425C177.417 709.906 165.3 693.557 155.51 675.814C140.309 638.346 132.77 598.2 133.339 557.757C132.812 530.583 136.077 503.468 143.039 477.2C147.951 458.123 150.74 438.559 151.353 418.866C150.49 386.877 141.679 355.608 125.718 327.893C118.57 315.905 108.411 306.005 96.2537 299.181C84.0965 292.357 70.3666 288.848 56.4339 289.004H49.5056C28.3199 289.893 7.65331 295.846 -10.7713 306.365C-28.1462 315.687 -44.6148 326.614 -59.9628 339.004C-94.8918 366.355 -136.099 384.5 -179.824 391.783H-190.909V322.338H-166.66C-151.101 318.714 -135.995 313.357 -121.625 306.365C-104.451 301.102 -87.7609 294.364 -71.7411 286.226L-57.8843 279.976C-24.7655 264.067 11.3985 255.538 48.1199 254.976C57.8077 254.294 67.5312 254.294 77.2191 254.976C91.8369 256.833 105.784 262.229 117.855 270.699C129.926 279.168 139.759 290.456 146.503 303.587C161.69 331.302 172.223 361.334 177.681 392.477C181.053 412.708 181.053 433.359 177.681 453.589C177.681 466.784 172.831 479.284 170.059 491.784C167.288 504.284 170.059 500.812 170.059 505.673C163.703 533.205 162.063 561.619 165.209 589.702C167.522 615.321 175.974 640.002 189.846 661.644C203.718 683.287 222.6 701.251 244.886 714.009C254.592 720.388 265.851 723.989 277.449 724.425C285.652 724.114 293.642 721.72 300.67 717.469C307.698 713.218 313.535 707.248 317.634 700.12C326.14 688.912 333.783 677.072 340.497 664.702L348.811 651.508C367.518 621.396 394.449 597.295 426.409 582.063L466.594 564.701L490.843 557.757C508.273 550.975 523.538 539.576 535.008 524.776C546.479 509.977 553.724 492.333 555.97 473.728C558.847 454.658 560.007 435.367 559.434 416.089C558.382 408.951 558.382 401.698 559.434 394.561C560.387 388.457 563.249 382.815 567.607 378.447C571.965 374.079 577.594 371.21 583.684 370.255H609.319C620.711 370.098 631.935 367.471 642.22 362.557C652.505 357.642 661.608 350.555 668.903 341.782C676.81 332.198 682.672 321.091 686.128 309.146C689.584 297.202 690.559 284.674 688.995 272.337C683.333 242.46 674.267 213.334 661.974 185.531L655.739 170.947C649.245 151.901 644.15 132.405 640.496 112.613C636.548 102.288 635.117 91.1661 636.322 80.1742C637.527 69.1824 641.333 58.6379 647.425 49.418C653.979 39.7469 661.653 30.8887 670.288 23.0289L677.217 16.7788C681.227 10.6575 686.706 5.6431 693.152 2.19531M693.152 2.19531C683.857 7.01376 675.427 13.3506 668.21 20.9455C657.871 28.7677 648.559 37.8676 640.496 48.0291C633.867 58.1979 629.776 69.8166 628.571 81.9036C627.365 93.9907 629.079 106.191 633.568 117.474C640.496 139.697 650.196 161.225 659.203 182.753C672.328 209.277 682.326 237.244 688.995 266.087C691.188 277.69 690.874 289.628 688.075 301.099C685.276 312.57 680.057 323.306 672.77 332.585C665.482 341.864 656.296 349.469 645.828 354.889C635.361 360.309 623.857 363.417 612.09 364.005H585.762C579.168 365.082 573.078 368.21 568.354 372.945C563.629 377.68 560.509 383.784 559.434 390.394C558.373 397.763 558.373 405.247 559.434 412.616C561.156 431.559 561.156 450.619 559.434 469.561C557.32 487.763 550.257 505.032 539.016 519.484C527.775 533.935 512.788 545.013 495.693 551.507C474.215 561.229 452.044 568.868 431.259 579.285C398.788 594.295 371.354 618.417 352.276 648.73C343.018 665.263 332.841 681.26 321.791 696.647C317.943 703.486 312.43 709.237 305.768 713.365C299.105 717.494 291.508 719.865 283.685 720.259C272.637 719.724 261.907 716.378 252.507 710.536C229.849 698.76 210.344 681.7 195.635 660.793C180.925 639.886 171.441 615.743 167.981 590.396C164.705 562.548 166.347 534.339 172.831 507.062C176.988 489.701 181.145 472.339 183.916 454.978C187.045 434.495 187.045 413.654 183.916 393.172C178.255 361.641 167.737 331.184 152.738 302.893C145.802 289.781 135.942 278.449 123.926 269.777C111.91 261.105 98.0608 255.327 83.4546 252.892H53.6626C14.3951 252.702 -24.3409 261.992 -59.27 279.976C-80.2145 290.941 -101.991 300.23 -124.397 307.754C-138.455 311.471 -152.842 313.797 -167.353 314.699H-184.674C-186.467 314.063 -188.423 314.063 -190.216 314.699V390.394C-188.643 390.923 -186.94 390.923 -185.366 390.394H-178.438C-134.304 382.655 -92.7005 364.307 -57.1915 336.921C-41.9762 325.018 -26.0074 314.115 -9.38568 304.282C8.96889 294.297 29.3378 288.599 50.1984 287.615H55.0482C68.9085 286.952 82.6865 290.093 94.8961 296.702C107.106 303.311 117.284 313.135 124.332 325.115C140.984 353.486 149.384 385.96 148.581 418.866C148.594 439.978 145.798 460.997 140.267 481.367C133.354 506.224 130.087 531.957 130.568 557.757C130.55 598.873 139.043 639.545 155.51 677.203C164.234 694.956 175.177 711.524 188.073 726.509C208.165 751.509 227.565 777.204 250.428 800.815C259.231 810.306 268.726 819.126 278.835 827.204C299.244 842.557 316.828 861.357 330.798 882.76C347.148 907.726 365.948 930.99 386.918 952.206C402.767 967.006 419.42 980.916 436.802 993.873C451.725 1004.62 463.073 1019.62 469.365 1036.93C470.818 1039.53 472.691 1041.88 474.908 1043.87H560.127C562.511 1041.91 564.21 1039.23 564.977 1036.23C569.938 1018.49 579.223 1002.26 591.998 989.011C618.947 959.173 640.515 924.866 655.739 887.621C663.768 862.741 675.695 839.3 691.073 818.176C705.081 800.998 721.136 785.605 738.879 772.342C760.357 754.981 782.528 737.62 808.163 722.342C820.27 714.063 834.406 709.26 849.04 708.453C856.945 708.576 864.734 710.372 871.898 713.723C879.062 717.074 885.439 721.904 890.611 727.898C902.102 740.948 911.881 755.417 919.71 770.954C932.874 797.343 942.573 825.815 952.966 852.899C959.817 870.472 967.682 887.631 976.523 904.288C984.166 916.992 986.878 932.07 984.144 946.65C980.641 969.636 978.789 992.844 978.601 1016.1C978.601 1022.35 978.601 1027.9 978.601 1033.46C978.601 1039.01 978.601 1037.62 982.065 1039.71H1056.2C1059 1037.85 1061.17 1035.19 1062.43 1032.07C1066.4 1021.8 1071.51 1012.01 1077.68 1002.9C1085.6 991.531 1095.9 982.035 1107.87 975.078C1119.84 968.12 1133.18 963.869 1146.96 962.622C1157.35 962.622 1168.44 962.622 1179.52 962.622C1202.75 962.483 1225.93 960.392 1248.81 956.372C1263.78 953.338 1277.33 945.428 1287.36 933.873C1297.38 922.318 1303.32 907.767 1304.23 892.483C1306.31 875.881 1306.31 859.084 1304.23 842.482C1302.05 824.328 1294.16 807.341 1281.71 793.981C1269.25 780.622 1252.87 771.584 1234.95 768.176C1226.9 767.194 1218.76 767.194 1210.7 768.176C1191.17 768.336 1171.95 773.094 1154.58 782.065C1137.95 790.398 1122.02 801.509 1105.39 811.232C1097.9 815.853 1090.02 819.804 1081.83 823.037C1074.08 826.861 1065.53 828.766 1056.89 828.593C1042.86 827.988 1029.23 823.676 1017.4 816.093C1000.38 805.185 986.149 790.441 975.83 773.037C961.032 748.456 947.84 722.94 936.338 696.647C931.424 686.134 925.133 676.326 917.631 667.48C912.191 661.04 905.39 655.892 897.722 652.409C890.053 648.926 881.708 647.195 873.29 647.341H866.361C835.891 648.033 806.858 660.469 785.299 682.064L681.374 775.815C657.865 797.787 638.605 823.919 624.561 852.899C615.176 874.7 602.043 894.68 585.762 911.927C568.931 930.642 545.671 942.299 520.635 944.567C512.59 944.195 504.733 942.003 497.654 938.155C490.574 934.306 484.456 928.901 479.758 922.344C472.517 914.057 466.241 904.971 461.051 895.26C440.375 862.285 417.213 830.944 391.767 801.509C379.705 787.183 371.585 769.947 368.211 751.509C364.958 729.97 367.346 707.954 375.139 687.619C381.703 669.661 392.402 653.509 406.367 640.477C420.333 627.444 437.169 617.899 455.508 612.619C476.987 604.285 498.464 598.729 519.942 591.785C550.276 580.419 575.084 557.791 589.226 528.59C597.54 514.006 603.776 498.034 611.397 482.756C623.555 460.073 640.595 440.384 661.281 425.117C683.952 407.04 705.044 387.06 724.33 365.394C743.203 343.454 760.564 320.252 776.292 295.948C786.685 279.976 795.692 273.726 806.084 273.726C816.179 274.706 825.906 278.035 834.491 283.448C857.689 296.269 876.152 316.236 887.146 340.393C900.506 365.615 911.858 391.854 921.095 418.866C929.067 441.246 933.962 464.609 935.645 488.312C935.645 510.534 935.645 532.062 935.645 557.757C936.08 569.742 937.941 581.631 941.188 593.174C944.256 602.955 950.331 611.513 958.544 617.624C966.756 623.736 976.687 627.088 986.915 627.202C996.834 627.887 1006.79 627.887 1016.71 627.202C1038.62 627.43 1060.17 621.667 1079.06 610.535C1100.43 597.236 1118.45 579.175 1131.72 557.757C1150.26 525.731 1161.17 489.843 1163.59 452.895C1164.4 429.375 1168.12 406.048 1174.67 383.449C1179.32 365.505 1190.42 349.919 1205.85 339.699C1211.01 336.711 1216.63 334.599 1222.48 333.449H1228.72C1233.72 333.411 1238.6 335.021 1242.61 338.032C1246.61 341.042 1249.52 345.288 1250.89 350.116C1256.46 364.115 1259.96 378.854 1261.28 393.866C1265.58 423.366 1273.97 452.117 1286.22 479.284C1296.41 499.248 1308.97 517.903 1323.63 534.84C1341.65 553.59 1360.35 570.951 1379.06 588.313C1397.59 606.434 1414.73 625.934 1430.33 646.647C1450.42 671.647 1470.52 696.647 1492.69 716.092L1531.49 751.509C1531.49 751.509 1535.64 756.37 1538.41 756.37V627.202C1532.13 616.868 1523.61 608.086 1513.47 601.507C1495.02 587.838 1475.3 575.978 1454.58 566.09C1428.03 554.234 1402.33 540.543 1377.68 525.118C1343.94 503.71 1319.26 470.574 1308.39 432.061C1304.78 419.65 1302.91 406.794 1302.85 393.866C1301.49 379.082 1301.49 364.205 1302.85 349.421C1304.64 337.691 1309.41 326.616 1316.68 317.255C1323.96 307.894 1333.51 300.559 1344.42 295.948C1363.18 288.517 1382.7 283.161 1402.62 279.976C1428.76 272.692 1454.07 262.683 1478.14 250.115C1493.71 241.515 1506.96 229.243 1516.73 214.361C1526.51 199.478 1532.53 182.432 1534.26 164.697C1538 138.929 1533.38 112.637 1521.09 89.6963C1512.23 75.1503 1498.84 63.9266 1482.99 57.7515C1467.55 51.2204 1451.54 46.1068 1435.18 42.4735C1424.12 39.9805 1413.24 36.7322 1402.62 32.7512C1391.91 27.6828 1382.8 19.7535 1376.29 9.83428C1374.36 6.9685 1372.02 4.3959 1369.36 2.19531L1313.93 2.19531C1311.14 6.01517 1309.68 10.653 1309.78 15.3899C1308.63 26.3251 1306.07 37.064 1302.16 47.3347C1300.99 51.7759 1298.63 55.8104 1295.33 58.9954C1292.03 62.1804 1287.92 64.393 1283.45 65.3904C1272.03 67.9738 1260.46 69.8294 1248.81 70.9461L1195.46 75.8072H1177.45C1149.46 76.6869 1122.12 67.3041 1100.54 49.418C1088.17 38.5285 1078.05 25.3168 1070.75 10.5287C1069.71 7.10453 1067.5 4.15519 1064.51 2.19531L1006.31 2.19531C1002.85 2.19531 1006.31 7.75093 1006.31 11.2232C1011.92 26.6325 1020.12 40.9618 1030.56 53.5848C1055.21 83.9619 1088.22 106.418 1125.48 118.169C1135.23 120.637 1145.22 122.034 1155.27 122.335H1185.07C1194.06 121.644 1203.09 121.644 1212.09 122.335C1218.67 122.68 1225.13 124.331 1231.07 127.191C1237.02 130.052 1242.34 134.067 1246.73 139.002C1250.08 143.394 1252.66 148.326 1254.35 153.586C1260.07 173.107 1259.75 193.908 1253.45 213.246C1247.14 232.585 1235.14 249.555 1219.02 261.92C1205.16 270.948 1191.3 280.671 1178.14 291.087C1149.98 314.935 1131.5 348.279 1126.18 384.838C1123.07 402.019 1121.68 419.466 1122.02 436.922C1122.29 460.428 1119.02 483.841 1112.32 506.367C1105.16 530.23 1091.19 551.472 1072.13 567.479C1060.61 576.463 1046.54 581.567 1031.95 582.063H1018.79C1011.14 579.365 1004.26 574.865 998.711 568.943C993.165 563.022 989.119 555.851 986.915 548.035C981.634 534.286 978.819 519.709 978.601 504.978C976.067 461.394 970.744 418.017 962.666 375.116C958.99 354.458 956.675 333.579 955.737 312.615C952.364 280.201 939.052 249.632 917.631 225.114C907.239 212.614 895.461 202.197 885.068 190.392C870.266 174.945 859.963 155.732 855.276 134.836C850.426 116.78 846.962 98.0297 842.112 79.9739C837.262 61.9182 825.484 32.0567 817.17 10.5287C817.393 9.01915 817.258 7.47815 816.777 6.03042C816.295 4.58269 815.481 3.26889 814.398 2.19531L693.152 2.19531Z" fill="#139248"/>
<path d="M-184.674 632.758L-143.103 639.008C-97.2179 647.327 -55.879 671.99 -26.7067 708.453C-18.6799 718.092 -11.7114 728.569 -5.92154 739.703C9.46736 772.12 18.1857 807.31 19.7135 843.177C20.5134 865.459 23.7664 887.584 29.4132 909.15C34.5009 930.669 46.1196 950.079 62.6694 964.706C73.769 973.431 85.3333 981.545 97.3113 989.012L110.475 998.039C124.649 1007.37 137.078 1019.12 147.196 1032.76C147.196 1032.76 147.196 1036.93 147.196 1038.32H86.2259H73.7548H65.4408C60.6143 1037.64 55.7177 1037.64 50.8912 1038.32C41.8726 1038.23 33.0044 1040.64 25.2561 1045.26H-190.909V1001.51H-186.752C-181.462 1002.19 -176.107 1002.19 -170.817 1001.51H-144.489H-105.69C-87.4274 997.956 -69.5583 992.606 -52.3417 985.539C-44.6645 982.739 -37.8315 978.013 -32.4947 971.813C-27.1579 965.612 -23.4954 958.145 -21.8568 950.122C-17.6582 930.025 -15.5683 909.543 -15.6213 889.011C-14.2354 869.127 -14.2354 849.171 -15.6213 829.288C-16.5475 801.008 -23.6421 773.274 -36.4064 748.037C-50.4386 718.44 -75.2234 695.337 -105.69 683.453C-120.877 678.43 -136.817 676.081 -152.803 676.508H-183.981H-190.909V634.147M-190.909 634.147C-192.909 633.336 -195.145 633.336 -197.145 634.147V679.286C-196.047 679.744 -194.87 679.981 -193.681 679.981C-192.491 679.981 -191.314 679.744 -190.216 679.286H-152.11C-136.578 678.863 -121.094 681.215 -106.383 686.231C-75.9341 697.407 -51.0633 720.092 -37.0992 749.426C-23.9175 774.005 -16.791 801.387 -16.3141 829.288C-14.9283 849.171 -14.9283 869.127 -16.3141 889.011C-16.3288 909.31 -18.4182 929.555 -22.5496 949.428C-23.8011 957.052 -27.1094 964.189 -32.1164 970.064C-37.1234 975.94 -43.6383 980.331 -50.956 982.761C-68.985 988.3 -87.5769 991.794 -106.383 993.178H-145.182H-164.581C-169.873 993.839 -175.225 993.839 -180.517 993.178C-181.876 993.084 -183.235 993.356 -184.454 993.966C-185.672 994.577 -186.705 995.504 -187.445 996.651V1039.01C-190.909 1043.87 -190.909 1043.87 -186.059 1043.87H25.949C33.4818 1039.34 42.1029 1036.94 50.8912 1036.93C55.4815 1036.2 60.1575 1036.2 64.7479 1036.93C72.1206 1038.52 79.3159 1040.85 86.2259 1043.87H155.51C155.51 1039.71 155.51 1036.93 155.51 1034.15C145.411 1020.3 132.986 1008.32 118.789 998.734C102.161 987.623 85.5331 977.9 70.2906 965.4C54.3887 951.038 43.2648 932.132 38.4201 911.233C32.6959 888.481 29.215 865.221 28.0275 841.788C26.5759 805.91 17.8538 770.705 2.39252 738.314C-3.54741 726.892 -10.7522 716.176 -19.0855 706.37C-48.8577 669.574 -90.968 644.89 -137.561 636.924L-182.595 627.202L-190.909 634.147Z" fill="#139248"/>
<path d="M179.759 2.19531H205.394C205.394 2.19531 205.394 2.19531 205.394 9.83428C210.442 32.2709 218.852 53.8117 230.336 73.7238C236.572 84.8351 242.807 95.2519 248.35 106.363L277.449 159.836C287.843 181.574 301.643 201.502 318.327 218.864C327.348 228.165 338.112 235.589 350 240.714C361.889 245.838 374.67 248.56 387.61 248.726H393.846C403.652 247.912 413.173 245.013 421.774 240.224C430.375 235.434 437.86 228.863 443.73 220.948C457.557 200.178 466.118 176.34 468.672 151.502C468.672 134.141 472.137 116.085 473.522 99.4186V93.1685C473.522 66.7793 479.065 40.3902 482.529 15.3899V10.5287C482.282 8.68517 482.282 6.81669 482.529 4.97312H542.806C539.861 18.9204 535.207 32.4491 528.949 45.2513C515.267 76.8936 506.168 110.334 501.929 144.558V150.114C498.133 173.713 492.339 196.945 484.608 219.559C481.21 233.29 474.822 246.096 465.901 257.059C458.644 265.275 449.661 271.778 439.599 276.1C429.536 280.423 418.643 282.458 407.703 282.059H390.382C368.929 278.321 348.463 270.234 330.236 258.293C312.009 246.352 296.404 230.809 284.378 212.614C271.163 193.944 259.13 174.461 248.35 154.28L235.879 133.447C221.983 111.099 209.487 87.9054 198.466 64.0015C189.063 44.4994 182.751 23.6468 179.759 2.19531M179.759 2.19531C182.1 23.0852 187.711 43.4745 196.387 62.6126C210.326 94.2731 226.056 125.111 243.5 154.975C254.725 176.013 267.461 196.205 281.606 215.392C293.895 233.79 309.834 249.452 328.43 261.4C347.026 273.348 367.88 281.327 389.689 284.837H407.01C418.312 285.171 429.553 283.048 439.958 278.612C450.363 274.176 459.687 267.534 467.287 259.142C476.431 247.966 483.05 234.935 486.686 220.948C494.632 195.229 500.881 169.015 505.393 142.475C511.48 109.058 521.964 76.5983 536.571 45.9458C543.572 32.1719 548.476 17.4249 551.12 2.19531L485.993 2.19531C483.692 4.41052 482.223 7.35403 481.836 10.5287C477.199 37.6584 473.961 65.0099 472.137 92.474C472.137 113.308 472.137 133.447 466.594 154.28C464.886 179.193 456.509 203.183 442.345 223.725C436.714 231.394 429.428 237.688 421.029 242.137C412.631 246.586 403.339 249.076 393.846 249.42H388.303C363.862 248.449 340.756 237.99 323.869 220.253C307.321 203.193 293.738 183.475 283.685 161.919C268.442 132.752 251.814 104.28 236.572 75.8072C225.068 55.9044 216.657 34.3605 211.63 11.9176C211.581 9.96385 211.049 8.05278 210.081 6.35589C209.114 4.659 207.741 3.22938 206.087 2.19531L179.759 2.19531Z" fill="#139248"/>
<path d="M-80.0551 2.19531H1.00694C-1.26326 11.4514 -4.27534 20.5087 -7.99994 29.2789C-23.204 61.6759 -47.2184 89.1161 -77.2838 108.446C-94.0554 120.509 -114.147 127.06 -134.789 127.197C-140.774 127.885 -146.818 127.885 -152.803 127.197L-180.517 123.03H-190.909V29.2789C-188.652 28.5827 -186.238 28.5827 -183.981 29.2789H-127.861C-112.11 28.0654 -97.336 21.1548 -86.2906 9.83428L-80.0551 2.19531ZM-80.0551 2.19531L-88.3692 7.75093C-98.6469 18.8462 -112.785 25.5588 -127.861 26.5011H-140.332L-171.51 25.1122H-181.209C-184.676 24.7837 -188.139 25.7754 -190.909 27.89V124.419L-149.339 131.363C-143.354 132.052 -137.31 132.052 -131.325 131.363C-110.117 131.414 -89.4602 124.593 -72.4339 111.919C-42.22 92.1554 -18.2006 64.2279 -3.15009 31.3623C0.042099 21.8229 2.58829 12.0784 4.47113 2.19531L-80.0551 2.19531Z" fill="#139248"/>
<path d="M5.16388 2.19529H59.8981C59.8981 2.19529 59.8981 2.19529 59.8981 8.44535C51.8992 33.6083 39.4621 57.1292 23.1777 77.8905L9.32092 96.6407C-0.907043 110.812 -10.1661 125.661 -18.3926 141.086C-25.3141 150.832 -30.0419 161.968 -32.2494 173.725C-33.7225 179.046 -33.6581 184.678 -32.0637 189.964C-30.4692 195.25 -27.4102 199.974 -23.2425 203.586C-17.9716 207.003 -12.0891 209.361 -5.92151 210.531C10.1594 214.817 26.6491 217.377 43.27 218.17H55.741C70.1442 219.293 84.4812 221.147 98.697 223.725C115.406 226.479 131.105 233.569 144.232 244.29C157.36 255.011 167.458 268.99 173.524 284.837C189.754 324.743 202.052 366.144 210.244 408.45C217.898 438.524 217.898 470.043 210.244 500.117C205.481 516.213 202.234 532.72 200.544 549.423C198.011 564.752 198.673 580.441 202.489 595.501C206.305 610.56 213.191 624.665 222.715 636.924C227.939 643.643 234.537 649.165 242.065 653.117C249.594 657.07 257.879 659.362 266.364 659.841C279.215 659.605 291.537 654.665 301.006 645.952C310 637.828 318.34 629.004 325.948 619.563C337.173 605.026 349.696 591.545 363.361 579.285C379.548 567.813 396.441 557.376 413.938 548.034H417.402H423.638C438.762 540.091 453.139 530.794 466.594 520.256C475.229 512.968 482.09 503.799 486.653 493.449C491.216 483.099 493.36 471.841 492.922 460.534C491.628 436.64 486.238 413.148 476.987 391.088C472.901 379.222 466.058 368.499 457.023 359.805C447.988 351.111 437.02 344.696 425.024 341.088C408.332 336.721 391.908 331.388 375.832 325.115C324.822 304.087 280.674 269.215 248.35 224.42C210.787 172.835 179.612 116.869 155.51 57.7514C148.118 43.4525 141.863 28.5914 136.803 13.3065C136.803 9.83426 136.803 8.44535 136.803 6.362H176.295C176.972 8.86309 176.972 11.4999 176.295 14.001C182.215 42.2788 192.5 69.4578 206.78 94.5574C220.636 120.947 235.879 146.641 250.429 170.947L257.357 182.058C269.606 208.25 286.778 231.829 307.934 251.504C333.112 275.997 366.41 290.336 401.467 291.782H406.317C422.983 292.199 439.327 287.127 452.842 277.343C466.357 267.56 476.299 253.604 481.144 237.614C490.176 211.352 497.126 184.417 501.929 157.058C507.13 124.605 516.202 92.8963 528.949 62.6126C536.76 46.0233 543.247 28.8397 548.349 11.2232H683.452C680.59 12.6826 677.814 14.3057 675.138 16.0843L666.131 24.4177C658.581 30.4821 651.83 37.4826 646.039 45.2513C636.653 57.0626 631.743 71.8245 632.182 86.9184C633.221 103.022 637.214 118.795 643.96 133.447C648.117 145.252 652.967 156.364 657.124 167.475L673.752 208.448C683.477 231.115 689.108 255.334 690.381 279.976C690.11 297.422 684.428 314.35 674.123 328.412C663.818 342.474 649.402 352.972 632.875 358.449C624.616 359.809 616.192 359.809 607.933 358.449H596.155C573.984 358.449 562.206 365.394 558.049 392.477C557.369 402.188 557.369 411.934 558.049 421.644C558.049 429.283 558.049 437.617 558.049 445.256C556.533 462.108 552.806 478.687 546.963 494.562C541.663 506.514 534.028 517.28 524.508 526.226C514.988 535.171 503.777 542.115 491.536 546.646L465.208 557.757C446.149 564.457 427.812 573.066 410.474 583.452C390.351 594.935 372.879 610.555 359.204 629.285C351.865 638.887 345.374 649.111 339.805 659.841C332.831 671.831 325.198 683.423 316.941 694.564C313.122 700.864 307.863 706.164 301.599 710.028C295.336 713.891 288.246 716.208 280.913 716.786C274.029 716.545 267.236 715.136 260.821 712.62C238.12 703.745 218.412 688.569 204.008 668.869C174.657 628.954 162.208 579.042 169.366 529.979C171.139 516.593 173.918 503.361 177.681 490.395C177.359 485.307 177.359 480.205 177.681 475.117C182.587 456.791 184.689 437.825 183.916 418.866C180.21 377.967 168.185 338.261 148.581 302.199C137.755 281.119 119.09 265.155 96.6185 257.754C81.6517 252.81 65.9531 250.461 50.1983 250.809H28.7204C-7.19485 254.277 -42.057 264.902 -73.8196 282.059C-108.496 301.58 -147.676 311.637 -187.445 311.226H-190.909V125.808H-177.745H-162.503H-137.561C-125.198 126.056 -112.922 123.69 -101.533 118.863C-79.0382 108.322 -59.16 92.9044 -43.3348 73.7238C-25.1694 53.9295 -11.8817 30.146 -4.53584 4.27864C-5.12013 2.71117 -5.12013 0.98495 -4.53584 -0.58252M-4.53584 -0.58252C-5.84962 0.0886528 -6.9789 1.07287 -7.82451 2.28371C-8.67014 3.49455 -9.20624 4.89497 -9.38571 6.362C-16.332 32.2448 -29.4036 56.0667 -47.4918 75.8072C-62.8537 94.5417 -82.2867 109.507 -104.304 119.558C-115.507 124.197 -127.518 126.557 -139.639 126.502C-147.939 127.188 -156.281 127.188 -164.581 126.502L-192.295 121.641C-193.062 121.316 -193.887 121.149 -194.72 121.149C-195.553 121.149 -196.377 121.316 -197.145 121.641V315.393H-187.445C-147.268 315.543 -107.705 305.51 -72.4339 286.226C-41.1592 269.088 -6.75314 258.459 28.7204 254.976H50.1983C65.7077 254.902 81.1343 257.244 95.9257 261.92C117.56 269.131 135.484 284.602 145.81 304.976C165.364 340.063 177.398 378.853 181.145 418.866C182.682 439.826 181.047 460.898 176.295 481.367C171.377 499.66 167.445 518.206 164.517 536.923C160.753 561.816 161.938 587.209 168.002 611.641C174.066 636.073 184.89 659.062 199.851 679.286C214.216 699.918 234.519 715.666 258.05 724.425C264.686 727.006 271.719 728.416 278.835 728.592C286.628 728.076 294.175 725.653 300.818 721.537C307.461 717.421 312.997 711.737 316.941 704.981C332.876 684.841 343.962 661.23 359.204 640.397C372.738 621.794 389.956 606.191 409.781 594.563C435.859 580.307 462.954 568.004 490.843 557.757C503.433 552.972 514.943 545.717 524.699 536.415C534.455 527.114 542.259 515.954 547.656 503.59C553.466 487.466 557.192 470.662 558.741 453.589C558.741 436.228 558.741 418.866 558.741 400.811C558.741 382.755 571.905 370.949 594.076 369.56C606.526 370.588 619.039 370.588 631.489 369.56C650.556 364.144 667.144 352.237 678.398 335.886C689.652 319.536 694.87 299.765 693.152 279.976C691.518 256.059 685.898 232.586 676.524 210.531C666.824 185.531 655.739 161.225 646.039 136.225C639.922 121.639 636.179 106.165 634.954 90.3907C634.75 75.8707 639.382 61.6972 648.117 50.1125C656.931 39.5407 666.669 29.7796 677.217 20.9455L693.152 2.19529H554.584C554.584 2.19529 550.427 2.19529 550.427 7.7509C545.183 26.0904 538.464 43.9733 530.335 61.2237C516.768 91.56 507.219 123.545 501.929 156.364C496.913 181.931 489.727 207.023 480.451 231.364C476.523 246.644 467.522 260.127 454.928 269.594C442.335 279.061 426.901 283.947 411.167 283.448H403.546C368.883 282.057 336.001 267.684 311.398 243.17C291.378 224.503 274.529 202.689 261.514 178.586C244.193 150.114 224.794 121.641 210.937 91.7796C197.148 66.7696 187.109 39.8601 181.145 11.9176C180.802 8.32233 179.349 4.92377 176.988 2.19529H134.725C134.725 5.66755 134.725 9.83426 134.725 14.001C138.994 29.397 144.318 44.4793 150.66 59.1403C175.911 118.4 208.249 174.365 246.964 225.809C280.726 270.427 326.349 304.604 378.604 324.421C394.539 330.671 411.167 335.532 427.795 340.393C439.443 343.787 450.083 349.994 458.78 358.469C467.477 366.945 473.967 377.43 477.679 389.005C487.198 410.977 492.6 434.518 493.615 458.45C494.187 469.404 492.162 480.339 487.706 490.357C483.251 500.376 476.491 509.194 467.98 516.09C452.933 527.96 436.677 538.202 419.481 546.646C399.971 555.273 381.201 565.493 363.361 577.201C347.512 589.932 333.106 604.371 320.405 620.257C312.365 629.549 303.558 638.144 294.077 645.952C289.785 650.194 284.698 653.544 279.11 655.808C273.521 658.073 267.541 659.207 261.514 659.147C254.192 658.191 247.148 655.723 240.827 651.898C234.507 648.072 229.047 642.974 224.794 636.924C215.685 624.992 209.085 611.331 205.393 596.769C201.701 582.207 200.995 567.045 203.316 552.201C205.144 535.519 208.389 519.024 213.015 502.895C220.642 472.347 220.642 440.386 213.015 409.839C204.588 367.366 192.297 325.756 176.295 285.532C169.952 269.344 159.535 255.079 146.057 244.126C132.58 233.173 116.502 225.905 99.3899 223.031C83.829 220.113 68.0885 218.257 52.2769 217.475C32.9381 216.911 13.6904 214.587 -5.22868 210.531C-11.0726 209.296 -16.5366 206.677 -21.164 202.892C-25.0325 199.666 -27.9254 195.421 -29.5167 190.636C-31.108 185.851 -31.3346 180.716 -30.1709 175.808C-27.7399 163.473 -23.0411 151.699 -16.3141 141.086C-3.843 120.947 10.7066 102.891 24.5633 84.1406C40.9239 63.3197 53.5804 39.8272 61.9766 14.6954C62.8313 12.9687 63.276 11.0673 63.276 9.13981C63.276 7.21229 62.8313 5.31088 61.9766 3.58419L-4.53584 -0.58252Z" fill="#139248"/>
<path d="M848.347 710.536C859.583 710.586 870.508 714.236 879.525 720.953C889.196 728.892 897.606 738.258 904.467 748.731C919.348 773.564 931.652 799.859 941.188 827.204V834.149C950.229 857.883 960.639 881.071 972.366 903.594C979.787 916.128 982.259 930.992 979.294 945.261C975.965 968.257 974.344 991.469 974.444 1014.71C974.1 1017.71 974.1 1020.73 974.444 1023.73C974.444 1023.73 974.444 1029.98 974.444 1033.46H900.31C897.469 1030.9 895.12 1027.84 893.382 1024.43V1020.26C884.958 1007.67 877.985 994.154 872.597 979.984C858.899 938.398 854.176 894.369 858.74 850.816V844.566C860.123 831.407 860.123 818.14 858.74 804.982C857.889 796.137 853.813 787.917 847.294 781.895C840.775 775.874 832.27 772.472 823.405 772.343H817.863C795.388 775.957 773.913 784.236 754.814 796.648C742.355 804.397 731.141 813.997 721.558 825.121C705.325 844.3 693.498 866.823 686.916 891.094C673.676 934.919 662.805 979.429 654.353 1024.43C654.353 1028.6 654.353 1030.68 654.353 1032.07H563.591C565.814 1019.89 570.532 1008.3 577.448 998.039C584.789 987.691 592.651 977.724 601.004 968.178C615.243 952.07 627.566 934.359 637.725 915.4C645.25 901.689 651.959 887.544 657.817 873.038C661.394 863.528 665.559 854.251 670.288 845.26C681.775 821.747 697.786 800.742 717.401 783.454C743.284 760.16 770.841 738.806 799.849 719.564C809.911 711.893 821.482 706.45 833.798 703.592C839.088 702.916 844.443 702.916 849.733 703.592M849.733 703.592H833.105C820.532 706.314 808.707 711.766 798.463 719.564C769.544 739.486 741.785 761.049 715.323 784.148C695.465 801.65 679.224 822.884 667.517 846.649C656.431 870.26 647.425 894.566 634.953 916.094C624.872 934.718 612.791 952.183 598.926 968.178C590.486 977.651 582.62 987.623 575.369 998.039C567.489 1009.46 562.279 1022.52 560.127 1036.23H649.503C654.353 1036.23 654.353 1029.98 655.046 1025.82C663.822 979.521 674.907 935.076 688.302 892.483C694.813 868.533 706.391 846.269 722.251 827.204C731.606 816.312 742.591 806.941 754.814 799.426C773.451 787.234 794.477 779.183 816.477 775.815H822.02C830.26 775.958 838.154 779.164 844.17 784.809C850.187 790.455 853.897 798.139 854.583 806.371C856.66 821.345 856.66 836.536 854.583 851.51C850.133 895.521 854.852 939.979 868.44 982.067C873.928 996.541 881.139 1010.3 889.918 1023.04C892.097 1028.51 895.683 1033.3 900.31 1036.93H986.915C986.915 1029.29 986.915 1022.35 986.915 1015.4C986.825 992.138 988.679 968.908 992.458 945.956C992.712 931.322 988.347 916.982 979.987 904.983C967.613 882.581 956.734 859.382 947.423 835.538C937.393 805.712 924.151 777.071 907.932 750.12C901.285 739.071 892.582 729.405 882.297 721.648C872.939 714.488 861.505 710.586 849.733 710.536V703.592Z" fill="#139248"/>
<path d="M805.392 273.726H815.092C838.274 280.971 858.464 295.601 872.597 315.393C884.51 333.135 894.717 351.97 903.082 371.644L906.546 379.977C927.557 423.22 938.232 470.772 937.724 518.868C937.352 539.066 938.51 559.263 941.188 579.285C942.32 591.264 947.449 602.51 955.747 611.206C964.045 619.901 975.026 625.537 986.915 627.202C997.282 628.233 1007.73 628.233 1018.09 627.202C1028.69 628.308 1039.37 628.308 1049.96 627.202C1069.19 620.985 1086.9 610.787 1101.94 597.268C1116.97 583.749 1129.01 567.211 1137.26 548.729C1154.79 511.741 1164.69 471.587 1166.36 430.672C1166.7 409.4 1171.92 388.492 1181.6 369.56C1185.28 361.444 1190.64 354.208 1197.33 348.339C1204.02 342.47 1211.89 338.104 1220.4 335.532H1228.72C1234.08 335.872 1239.22 337.851 1243.43 341.203C1247.64 344.555 1250.73 349.12 1252.27 354.283C1257.12 368.975 1260.6 384.086 1262.66 399.422V411.228C1268.7 450.674 1284.15 488.076 1307.7 520.257C1324.83 541.819 1343.84 561.806 1364.51 579.979L1374.21 588.313C1391.42 605.163 1407.61 623.018 1422.71 641.786L1433.8 656.369L1471.9 696.647C1493.5 721.248 1516.64 744.444 1541.19 766.092V859.844V865.399C1540.18 867.562 1539.02 869.65 1537.72 871.649L1530.79 881.371L1514.16 905.677C1495.01 934.564 1467.07 956.484 1434.49 968.178L1402.62 974.428L1379.06 981.373C1367.19 984.844 1356.57 991.666 1348.46 1001.02C1340.35 1010.38 1335.1 1021.88 1333.33 1034.15C1334.44 1037.3 1334.44 1040.73 1333.33 1043.87H1277.91C1275.96 1042.51 1274.51 1040.57 1273.75 1038.32C1271.4 1032.9 1267.98 1028.01 1263.69 1023.95C1259.4 1019.89 1254.34 1016.75 1248.81 1014.71C1231.82 1006.93 1213.44 1002.68 1194.77 1002.21C1182.36 1002.06 1169.99 1003.7 1158.05 1007.07C1149.7 1009.11 1141.85 1012.8 1134.94 1017.93C1128.04 1023.06 1122.24 1029.52 1117.86 1036.93H1113.7H1059.66C1061.55 1031.43 1063.87 1026.09 1066.59 1020.96C1072.37 1007.96 1080.97 996.423 1091.75 987.174C1102.54 977.924 1115.25 971.198 1128.95 967.484C1144.64 964.036 1160.71 962.635 1176.75 963.317H1205.16C1220.05 962.494 1234.87 960.637 1249.5 957.761C1261.46 955.268 1272.48 949.453 1281.31 940.98C1290.13 932.507 1296.39 921.717 1299.39 909.844C1303.69 892.842 1305.1 875.232 1303.54 857.76C1302.95 843.002 1299.17 828.549 1292.46 815.399C1285.1 800.388 1273.64 787.783 1259.41 779.053C1245.18 770.324 1228.77 765.828 1212.09 766.092C1190.85 766.033 1170.01 771.797 1151.81 782.759L1128.95 796.648L1095.69 816.093C1084.87 822.818 1072.4 826.423 1059.66 826.51C1044.77 825.941 1030.35 821.122 1018.09 812.621C1001.85 801.517 988.154 787.077 977.908 770.259C965.425 750.32 954.536 729.421 945.345 707.759L939.802 696.647C936.611 688.871 932.666 681.428 928.024 674.425C923.781 667.393 918.152 661.303 911.481 656.527C904.81 651.751 897.237 648.389 889.225 646.647C882.545 645.964 875.813 645.964 869.133 646.647C849.285 647.13 829.92 652.881 813.013 663.314C796.178 674.286 780.61 687.096 766.593 701.508L762.436 704.981L707.702 754.287L702.159 759.148C681.943 776.42 663.807 795.997 648.118 817.482C639.111 830.677 631.49 845.26 623.868 859.149C616.247 873.038 614.861 875.816 610.012 884.149C595.268 911.657 570.418 932.331 540.728 941.789C535.002 942.846 529.132 942.846 523.407 941.789C514.618 941.473 506.011 939.189 498.218 935.103C490.425 931.017 483.644 925.234 478.372 918.177C469.365 905.677 461.051 892.483 454.123 881.371C439.738 856.856 423.28 833.622 404.932 811.926C397.683 802.839 390.974 793.331 384.839 783.454C371.923 762.775 366.995 738.076 370.982 714.009C374.146 686.938 385.511 661.49 403.546 641.091C418.545 626.369 436.493 615.007 456.202 607.757L492.922 595.952L522.021 586.924C546.319 578.097 566.862 561.183 580.219 539.007C588.579 526.503 595.769 513.252 601.697 499.423L607.933 488.312C614.98 473.875 624.082 460.542 634.954 448.728C645.626 438.061 656.965 428.087 668.903 418.867L692.459 399.422C708.523 383.945 723.35 367.226 736.801 349.421C748.579 334.838 759.664 319.56 770.057 304.282L779.064 289.004C781.448 284.578 784.934 280.845 789.183 278.168C793.432 275.49 798.3 273.96 803.313 273.726M803.313 273.726C797.765 273.964 792.37 275.621 787.641 278.538C782.911 281.455 779.005 285.536 776.293 290.393C761.743 310.532 748.579 332.06 732.644 351.505C718.951 368.237 704.136 384.014 688.302 398.727C669.596 416.089 648.118 430.672 630.797 449.422C620.668 461.122 612.269 474.219 605.854 488.312C597.729 506.693 588.473 524.552 578.141 541.785C564.897 563.199 544.904 579.573 521.328 588.313C499.157 595.952 476.987 600.813 455.509 609.841C432.026 617.218 411.227 631.357 395.704 650.497C380.181 669.638 370.62 692.933 368.211 717.481C364.938 741.532 369.818 765.987 382.068 786.926C388.303 796.648 395.925 805.676 402.853 814.704C421.032 836.531 437.479 859.75 452.044 884.149C459.48 896.834 467.574 909.12 476.294 920.955C481.632 928.542 488.68 934.76 496.867 939.104C505.053 943.448 514.146 945.796 523.407 945.956C529.39 946.676 535.437 946.676 541.421 945.956C570.872 935.316 595.483 914.347 610.704 886.927C623.175 864.705 633.568 841.093 648.118 817.482C663.558 795.998 681.724 776.622 702.159 759.842L762.436 705.675C777.613 690.333 794.329 676.603 812.32 664.703C828.726 654.289 847.642 648.529 867.054 648.036C873.501 647.319 880.007 647.319 886.454 648.036C901.676 651.659 914.865 661.137 923.174 674.425C927.844 681.29 932.012 688.485 935.645 695.953C946.394 721.68 959.135 746.524 973.751 770.259C984.192 787.535 998.114 802.436 1014.63 814.01C1027.33 822.657 1042.24 827.477 1057.58 827.899C1070.74 827.723 1083.63 824.134 1095 817.482L1151.12 784.148C1168.6 773.289 1188.75 767.518 1209.32 767.481C1226.02 766.233 1242.72 769.906 1257.37 778.05C1272.02 786.193 1283.98 798.451 1291.76 813.315C1298.37 825.975 1301.92 840.005 1302.16 854.288C1303.98 871.528 1302.57 888.958 1298 905.677C1295.2 917.08 1289.21 927.447 1280.75 935.564C1272.28 943.681 1261.68 949.213 1250.19 951.511C1233.1 955.113 1215.69 956.975 1198.23 957.067C1175.01 956.452 1151.78 958.314 1128.95 962.622C1114.82 966.179 1101.68 972.901 1090.52 982.284C1079.36 991.666 1070.47 1003.46 1064.51 1016.79C1061.05 1024.43 1057.58 1032.07 1054.81 1039.71H1113.01C1113.01 1039.71 1117.86 1039.71 1119.25 1034.15C1128.03 1020 1141.93 1009.8 1158.05 1005.68C1169.78 1002.4 1181.9 1000.77 1194.07 1000.82C1211.11 1000.73 1228.03 1003.79 1243.96 1009.85C1249.27 1011.79 1254.12 1014.83 1258.18 1018.78C1262.24 1022.73 1265.42 1027.5 1267.51 1032.76C1269 1035.55 1271.14 1037.93 1273.75 1039.71H1333.33C1335.7 1036.98 1337.15 1033.58 1337.49 1029.98C1338.97 1018.16 1343.9 1007.04 1351.67 998.021C1359.43 989.001 1369.69 982.484 1381.14 979.289C1397.77 973.734 1414.4 969.567 1430.33 963.317C1463.47 951.976 1491.96 930.011 1511.39 900.816C1519.01 889.01 1527.33 877.899 1534.95 866.788C1537.58 862.676 1539.68 858.242 1541.19 853.593V761.926C1516.34 740.602 1493.18 717.384 1471.9 692.481C1455.97 674.425 1441.42 655.675 1426.87 637.619C1412.12 618.342 1395.65 600.444 1377.68 584.146C1353.78 562.94 1331.76 539.705 1311.86 514.701C1288.44 482.779 1273.21 445.575 1267.51 406.366C1265.19 386.964 1260.78 367.871 1254.35 349.421C1252.84 343.727 1249.53 338.679 1244.9 335.045C1240.27 331.411 1234.59 329.388 1228.72 329.282C1225.74 328.665 1222.68 328.665 1219.71 329.282C1210.77 331.706 1202.47 336.073 1195.41 342.074C1188.34 348.076 1182.68 355.563 1178.83 364.005C1169.56 383.58 1164.37 404.849 1163.59 426.505C1161.98 466.984 1152.07 506.698 1134.49 543.173C1127.37 562.74 1115.95 580.451 1101.08 594.996C1086.21 609.542 1068.27 620.548 1048.58 627.202C1037.3 628.563 1025.9 628.563 1014.63 627.202C1005.41 628.053 996.134 628.053 986.915 627.202C975.889 625.019 965.922 619.168 958.628 610.597C951.334 602.026 947.142 591.237 946.731 579.979C944.176 560.178 943.018 540.221 943.267 520.257C943.382 472.204 932.727 424.738 912.089 381.366C902.762 358.714 891.155 337.074 877.447 316.782C863.172 296.53 842.763 281.431 819.249 273.726H808.163H803.313Z" fill="#139248"/>
<path d="M52.9698 287.615H67.5193C85.674 289.495 102.355 298.479 113.94 312.615C135.996 339.967 148.201 373.977 148.581 409.144C149.605 432.592 146.797 456.05 140.267 478.589C133.541 504.418 130.509 531.073 131.26 557.757C131.876 575.658 133.495 593.511 136.11 611.23C140.933 649.076 156.031 684.869 179.759 714.703C192.923 732.064 206.087 748.731 219.944 765.398C236.275 787.005 255.114 806.588 276.064 823.732C297.008 839.686 315.254 858.913 330.105 880.677C341.744 898.97 354.712 916.378 368.904 932.761C388.388 953.38 409.47 972.421 431.952 989.706L440.959 996.651C455.536 1007.88 466.205 1023.43 471.444 1041.1H396.617C382.583 1016.3 364.823 993.81 343.962 974.428C321.755 952.633 295.67 935.202 267.057 923.039C252.087 916.593 238.625 907.088 227.53 895.13C216.435 883.172 207.952 869.025 202.623 853.593L198.466 842.482C192.23 825.815 185.995 807.76 178.373 791.093C170.152 771.569 159.936 752.951 147.889 735.537C145.197 731.84 142.876 727.885 140.96 723.731C129.626 706.975 121.845 688.066 118.097 668.175C111.748 631.669 107.813 594.783 106.318 557.757C104.416 523.663 107.686 489.477 116.018 456.367C124.063 428.701 124.063 399.309 116.018 371.644C112.082 357.985 104.058 345.866 93.031 336.924C82.0037 327.983 68.504 322.649 54.3554 321.643C45.8355 321.916 37.4144 323.557 29.4133 326.504C5.81934 336.326 -15.6068 350.722 -33.635 368.866C-54.6068 389.095 -77.8581 406.807 -102.919 421.644L-132.711 437.617C-150.032 445.95 -167.353 454.978 -183.981 464.7V395.255H-183.288C-146.958 388.921 -112.161 375.724 -80.7479 356.366L-52.3416 334.143C-41.2562 325.81 -28.7851 317.476 -17.0069 309.838C3.70113 296.378 27.62 288.706 52.2769 287.615M52.2769 287.615C26.1831 288.478 0.807587 296.397 -21.1639 310.532C-42.6419 323.032 -62.0413 339.699 -82.8265 353.588C-114.176 371.328 -148.43 383.321 -183.981 389.005H-190.909V467.478C-163.196 450.811 -134.096 437.617 -105.69 422.339C-80.659 407.188 -57.4168 389.25 -36.4063 368.866C-18.3116 351.305 2.81694 337.186 25.9491 327.199C34.2124 323.604 43.1745 321.911 52.1764 322.245C61.1784 322.579 69.9912 324.931 77.9669 329.128C85.9427 333.325 92.8785 339.26 98.2644 346.497C103.65 353.735 107.349 362.09 109.09 370.949C116.722 398.201 116.722 427.032 109.09 454.284C101.872 488.274 100.002 523.187 103.547 557.757C105.034 596.394 108.968 634.898 115.325 673.036C119.424 693.254 127.172 712.553 138.189 729.981C152.782 752.035 165.528 775.263 176.295 799.426L200.544 861.927C205.911 877.445 214.487 891.652 225.71 903.619C236.933 915.586 250.55 925.044 265.671 931.372C293.707 940.912 319.77 955.503 342.576 974.428C362.572 992.501 379.636 1013.59 393.153 1036.93V1041.1H474.908C470.167 1021.51 458.929 1004.13 443.037 991.789C418.069 972.629 394.88 951.246 373.754 927.9C359.675 911.67 346.712 894.501 334.955 876.51C320.023 854.39 301.526 834.911 280.221 818.871C259.97 803.251 241.394 785.563 224.794 766.092L184.609 716.092C161.679 686.123 146.88 650.715 141.653 613.313C137.968 594.97 135.423 576.416 134.032 557.757C133.223 531.071 136.256 504.408 143.039 478.589C149.36 456.008 152.165 432.584 151.353 409.144C150.756 373.594 138.592 339.212 116.711 311.226C104.368 296.345 86.7193 286.877 67.5193 284.837L52.2769 287.615Z" fill="#139248"/>
<path d="M-190.909 571.646C-166.274 587.113 -140.834 601.254 -114.697 614.008L-91.8334 627.202C-68.354 639.38 -46.8608 655.069 -28.0923 673.73C-8.3846 691.875 9.27335 712.135 24.5634 734.148C38.2189 758.288 46.713 785.012 49.5056 812.621C49.8361 817.94 49.8361 823.274 49.5056 828.593C51.7993 849.651 56.4474 870.383 63.3623 890.399C69.0221 909.074 79.2654 926.027 93.1544 939.705C105.384 950.638 118.605 960.403 132.646 968.872L143.732 975.817C156.336 983.199 167.197 993.228 175.569 1005.22C183.941 1017.2 189.625 1030.86 192.23 1045.26H155.51V1040.4C142.358 1022.77 125.88 1007.91 107.011 996.65H102.854C89.3086 988.35 76.553 978.819 64.748 968.178C46.8072 949.238 35.8145 924.753 33.5703 898.733C33.5703 882.76 28.7204 866.094 27.3348 849.427C25.9491 832.76 27.3347 826.51 23.1777 815.399C19.6898 786.125 10.043 757.926 -5.12514 732.667C-20.2933 707.407 -40.6374 685.662 -64.8127 668.869C-102.414 644.482 -146.126 631.242 -190.909 630.674V571.646ZM-190.909 567.479V632.758C-146.651 633.907 -103.539 647.111 -66.1984 670.953C-43.5032 687.074 -24.3949 707.743 -10.0835 731.651C4.228 755.559 13.4308 782.185 16.9422 809.843C21.0992 836.927 22.4849 865.399 27.3348 893.177C30.2775 919.146 41.4474 943.485 59.2053 962.622C72.4716 974.42 86.859 984.887 102.161 993.873C120.65 1004.53 136.7 1018.97 149.274 1036.23L155.51 1043.87H202.623C199.609 1029.36 193.538 1015.65 184.816 1003.68C176.094 991.7 164.921 981.729 152.046 974.428C134.433 963.819 117.746 951.739 102.161 938.316C88.5317 924.977 78.3122 908.54 72.3692 890.399C64.6741 865.258 59.3392 839.451 56.4339 813.315C53.9327 784.894 45.1777 757.382 30.799 732.759C15.0326 710.498 -3.08624 690.008 -23.2424 671.647C-42.3052 652.718 -64.2984 637.005 -88.3692 625.119C-121.625 604.98 -154.882 589.702 -185.366 570.257L-190.909 567.479Z" fill="#139248"/>
<path d="M209.551 2.19531H237.957C240.182 16.8698 245.116 31.0001 252.507 43.8624C267.75 72.335 282.299 102.196 296.849 130.669C301.006 140.391 305.856 149.419 310.705 159.141C317.952 179.728 331.234 197.641 348.812 210.531C358.588 216.665 369.843 220.025 381.375 220.253C390.166 220.128 398.782 217.768 406.416 213.396C414.05 209.024 420.453 202.781 425.024 195.253C436.333 176.12 442.315 154.297 442.345 132.058C443.049 118.178 443.049 104.271 442.345 90.3907C442.345 79.2795 442.345 68.1682 442.345 57.7515V2.19531H485.993C485.993 8.44538 485.993 14.6954 485.993 20.2511C485.993 25.8067 481.836 49.418 480.451 63.3071C479.065 77.1961 480.451 91.0852 480.451 104.28C480.451 117.474 480.451 129.28 476.987 142.475C475.666 164.131 470.259 185.339 461.051 204.975C455.69 217.289 446.88 227.78 435.689 235.176C424.498 242.572 411.407 246.555 398.003 246.642C386.392 248.283 374.564 247.334 363.361 243.865C337.91 232.948 316.564 214.228 302.391 190.392C294.077 176.503 286.456 161.919 278.835 148.03C276.025 143.315 273.481 138.447 271.214 133.447L254.586 104.28L233.8 71.6405C222.126 49.9137 213.942 26.4775 209.551 2.19531M209.551 2.19531C214.372 26.4587 222.778 49.8649 234.493 71.6405C246.272 92.4741 258.05 113.308 269.135 134.141C280.221 154.975 289.227 172.336 301.006 191.086C315.53 215.221 337.036 234.356 362.668 245.948C372.218 249.46 382.289 251.338 392.46 251.504C405.551 251.212 418.291 247.209 429.204 239.957C440.118 232.706 448.758 222.503 454.123 210.531C463.842 190.798 469.497 169.306 470.751 147.336C470.751 120.947 474.908 94.5574 477.679 68.8627C480.451 43.168 483.222 23.7233 485.993 2.19531H436.802V53.5848C436.802 78.585 436.802 103.585 436.802 127.891C436.96 149.843 431.216 171.433 420.174 190.392C415.769 197.499 409.655 203.386 402.393 207.511C395.13 211.636 386.95 213.868 378.604 214.003C367.505 213.773 356.696 210.402 347.426 204.281C331.329 193.443 318.603 178.281 310.705 160.53C294.077 122.335 275.371 83.4462 255.278 45.2513C247.751 31.891 242.594 17.3229 240.036 2.19531L209.551 2.19531Z" fill="#139248"/>
<path d="M750.657 71.6406C755.406 70.2321 760.459 70.2321 765.207 71.6406C771.917 76.9332 776.77 84.2304 779.064 92.4741C785.606 109.742 787.284 128.482 783.914 146.641C782.492 159.319 779.224 171.72 774.214 183.447C774.214 189.003 767.286 191.781 762.436 191.781C759.699 192.406 756.858 192.406 754.122 191.781C739.584 184.207 727.729 172.324 720.173 157.753C712.094 145.527 707.319 131.409 706.316 116.78C705.65 112.407 705.65 107.958 706.316 103.585C709.467 94.8306 715.059 87.1666 722.428 81.5039C729.797 75.8412 738.633 72.4178 747.886 71.6406M747.886 71.6406C738.045 72.5936 728.689 76.3784 720.944 82.539C713.2 88.6996 707.398 96.9732 704.237 106.363C703.243 111.641 703.243 117.058 704.237 122.336C705.13 137.418 709.904 152.013 718.094 164.697C725.974 179.68 738.328 191.82 753.429 199.42C756.606 200.275 759.952 200.275 763.129 199.42C766.194 199.208 769.134 198.111 771.592 196.263C774.051 194.415 775.924 191.894 776.985 189.003C782.624 177.213 786.142 164.518 787.378 151.503C790.652 132.648 788.981 113.264 782.528 95.2519C779.581 86.9672 774.283 79.7261 767.286 74.4184C763.041 69.3365 757.16 65.8982 750.657 64.696L747.886 71.6406Z" fill="#139248"/>
<path d="M53.6626 321.643C61.5672 321.767 69.3566 323.563 76.5205 326.914C83.6844 330.265 90.0611 335.095 95.2329 341.088C111.339 360.544 119.726 385.269 118.789 410.533C118.899 427.401 116.803 444.211 112.554 460.534C104.835 494.445 102.035 529.295 104.24 564.007C104.24 591.785 108.397 619.563 111.168 643.174C113.915 675.942 124.362 707.592 141.653 735.537C155.261 754.662 166.87 775.141 176.295 796.648C183.916 813.315 190.152 830.677 196.387 847.343V852.205C201.273 868.641 209.613 883.838 220.846 896.775C232.08 909.712 245.947 920.088 261.514 927.205L280.221 936.233H285.07C317.317 953.604 345.81 977.207 368.904 1005.68C376.736 1014.72 383.695 1024.49 389.689 1034.85C389.689 1034.85 389.689 1034.85 389.689 1039.71H320.405L312.091 1033.46C306.948 1028.5 300.805 1024.72 294.077 1022.35H286.456C281.886 1022.57 277.465 1024.05 273.677 1026.62C269.889 1029.19 266.879 1032.76 264.978 1036.93C264.725 1038.1 264.222 1039.2 263.505 1040.16C262.787 1041.12 261.872 1041.91 260.821 1042.48H200.544C199.097 1040.58 197.93 1038.47 197.08 1036.23C192.55 1018.16 182.93 1001.76 169.367 989.012C159.67 980.154 148.974 972.463 137.496 966.095L129.875 961.234C116.317 953.305 103.953 943.484 93.1544 932.067C78.2361 913.748 68.0089 892.054 63.3623 868.871C63.3623 854.288 57.8196 838.315 55.0483 823.732C52.2769 809.149 55.0483 802.204 50.1984 791.787C45.6347 766.679 35.4485 742.935 20.4064 722.342C5.87994 703.733 -10.1062 686.316 -27.3994 670.258C-48.144 651.116 -71.466 634.986 -96.6832 622.341C-121.625 606.369 -152.803 591.091 -181.209 573.729C-184.007 571.961 -186.374 569.589 -188.138 566.785V468.173C-186.794 465.464 -184.604 463.27 -181.902 461.923C-168.046 453.589 -156.267 447.339 -145.182 441.783C-100.916 422.018 -60.3715 394.768 -25.3209 361.227C-8.87199 344.461 11.3113 331.847 33.5703 324.421C40.253 323.792 46.9799 323.792 53.6626 324.421M53.6626 324.421C46.5981 324.51 39.5887 325.68 32.8775 327.893C10.2012 334.849 -10.3146 347.522 -26.7066 364.699C-62.3241 395.722 -102.524 421.022 -145.875 439.7C-158.909 445.304 -171.428 452.042 -183.288 459.839C-186.636 461.421 -189.331 464.122 -190.909 467.478V567.479C-189.065 571.052 -186.16 573.964 -182.595 575.813C-154.882 592.48 -125.782 607.758 -97.3761 622.341C-72.0797 634.563 -48.7312 650.477 -28.0923 669.564C-10.758 685.581 5.23123 703.001 19.7135 721.648C34.6607 742.218 44.6235 765.994 48.8127 791.093C53.6626 816.788 55.7411 843.871 61.9767 868.871C66.827 892.328 77.2885 914.253 92.4615 932.761C103.207 944.431 115.574 954.488 129.182 962.622C143.303 970.433 156.544 979.746 168.674 990.4C182.013 1002.77 191.616 1018.66 196.387 1036.23C196.896 1039.53 198.629 1042.5 201.237 1044.57H259.435C262.046 1042.8 264.186 1040.41 265.671 1037.62C267.16 1033.83 269.726 1030.56 273.051 1028.21C276.376 1025.87 280.314 1024.55 284.378 1024.43H291.306C298.527 1026.61 305.16 1030.41 310.705 1035.54L321.098 1043.18H395.232C395.232 1039.01 395.232 1035.54 395.232 1032.76C389.516 1022.01 382.538 1011.99 374.447 1002.9C350.805 974.429 321.861 950.842 289.227 933.455C281.889 929.193 274.247 925.48 266.364 922.344C251.101 915.18 237.528 904.853 226.541 892.045C215.553 879.236 207.401 864.237 202.623 848.038C195.694 829.288 188.766 810.537 181.145 792.482C171.108 771.287 159.529 750.862 146.503 731.37C128.492 704.119 117.32 672.909 113.94 640.397C113.94 614.008 108.397 587.618 107.011 560.535C104.607 526.281 107.41 491.86 115.325 458.45C119.827 441.941 121.928 424.866 121.561 407.755C122.111 382.431 113.497 357.763 97.3114 338.31C92.0447 331.797 85.392 326.545 77.8399 322.941C70.2878 319.336 62.0273 317.469 53.6626 317.477V324.421Z" fill="#139248"/>
<path d="M241.422 2.19531H285.071C287.207 3.81528 288.88 5.97104 289.92 8.44538C292.201 15.9036 295.219 23.1152 298.927 29.9734C312.772 53.9421 324.591 79.0299 334.262 104.974C337.822 116.276 342.462 127.206 348.119 137.613C351.7 144.196 356.96 149.708 363.361 153.586C366.761 154.533 370.354 154.533 373.754 153.586C377.39 153.531 380.925 152.373 383.893 150.266C386.861 148.159 389.123 145.201 390.382 141.78C395.177 131.619 396.865 120.262 395.232 109.141C392.938 94.4199 389.932 79.8193 386.225 65.3904C381.752 46.9067 378.741 28.0982 377.218 9.13983C376.679 7.80352 376.679 6.30943 377.218 4.97312H434.724C435.153 7.03422 435.153 9.16209 434.724 11.2232C434.724 18.8622 434.724 25.8067 434.724 32.7512C434.724 39.6957 434.724 57.057 434.724 68.8627C434.724 80.6684 434.724 77.1961 434.724 81.3628C434.724 96.6408 434.724 113.308 434.724 129.28C435.093 148.174 430.557 166.84 421.56 183.447C418.226 191.038 413.061 197.677 406.53 202.769C399.999 207.861 392.307 211.244 384.146 212.614H380.682C371.189 212.27 361.897 209.78 353.499 205.331C345.101 200.882 337.814 194.588 332.184 186.92C320.314 173.275 310.721 157.797 303.777 141.086C294.077 116.78 278.835 90.3907 263.593 63.3071C253.662 46.8982 246.192 29.1154 241.422 10.5287C240.726 8.7425 240.726 6.75936 241.422 4.97312M241.422 4.97312C241.422 4.97312 241.422 10.5287 241.422 14.001C245.855 31.6122 252.367 48.6306 260.821 64.696C275.371 90.3907 288.535 116.78 301.006 143.863C308.277 160.984 318.088 176.904 330.105 191.086C336.185 198.83 343.839 205.188 352.56 209.738C361.28 214.288 370.866 216.925 380.682 217.475H388.996C398.336 216.459 407.257 213.05 414.902 207.577C422.546 202.104 428.657 194.751 432.645 186.225C441.227 168.964 445.731 149.955 445.809 130.669C446.846 110.543 446.846 90.3773 445.809 70.2516C445.809 51.5014 445.809 32.0567 445.809 12.6121C445.809 12.6121 445.809 4.97312 445.809 2.19531H377.218C376.703 3.40264 376.438 4.70192 376.438 6.0148C376.438 7.32768 376.703 8.62696 377.218 9.83428C377.853 28.7538 380.171 47.5787 384.146 66.0849C384.146 81.3628 390.382 96.6408 392.46 112.613C393.808 122.307 392.366 132.185 388.303 141.086C387.196 144.081 385.217 146.675 382.624 148.532C380.03 150.389 376.94 151.424 373.754 151.502H363.361C357.383 147.839 352.574 142.538 349.504 136.225C343.611 126.179 338.958 115.452 335.648 104.28C326.154 78.2658 314.809 52.969 301.699 28.5845C298.755 22.5069 296.209 16.2436 294.077 9.83428C293.269 8.07044 292.117 6.48621 290.689 5.17446C289.261 3.86272 287.587 2.84988 285.763 2.19531L241.422 4.97312Z" fill="#139248"/>
<path d="M806.085 377.894C815.911 378.177 825.564 380.552 834.404 384.863C843.244 389.173 851.067 395.32 857.355 402.894C873.074 419.336 884.518 439.401 890.68 461.32C896.841 483.239 897.532 506.34 892.689 528.59C891.121 538.505 887.547 547.994 882.185 556.473C876.823 564.952 869.788 572.243 861.512 577.896L838.648 591.091C812.7 604.269 789.252 621.896 769.364 643.174L737.494 678.591C713.311 704.082 686.875 727.325 658.51 748.037C628.899 769.283 603.52 795.9 583.684 826.51C577.85 836.712 570.357 845.866 561.513 853.593C553.87 860.552 544.102 864.713 533.799 865.399C529.894 865.969 525.927 865.969 522.021 865.399C510.09 860.464 499.772 852.286 492.229 841.788C471.031 812.124 453.142 780.22 438.881 746.648C432.109 733.632 429.912 718.708 432.645 704.286C434.743 693.679 439.642 683.83 446.833 675.768C454.023 667.706 463.24 661.726 473.522 658.452L505.393 647.341C513.014 647.341 521.328 642.48 528.949 639.008C551.615 630.982 572.043 617.649 588.533 600.118C604.506 582.248 617.385 561.828 626.64 539.701C639.939 506.221 661.09 476.445 688.302 452.895L696.616 445.256C714.63 429.283 734.029 412.616 754.122 398.033C768.638 386.48 786.231 379.474 804.699 377.894M804.699 377.894C785.642 379.271 767.483 386.551 752.736 398.727C728.369 415.339 705.215 433.673 683.452 453.589C656.18 477.793 634.842 507.973 621.097 541.784C612.13 563.484 599.471 583.457 583.684 600.813C567.656 618.243 547.701 631.577 525.485 639.702C506.779 646.647 488.072 650.813 469.365 659.147C460.132 663.052 451.973 669.13 445.581 676.867C439.189 684.604 434.752 693.771 432.645 703.592C430.232 719.294 432.903 735.357 440.266 749.426C454.985 782.909 473.094 814.789 494.308 844.566C501.842 855.68 512.432 864.364 524.792 869.566C532.092 872.5 540.108 873.141 547.78 871.405C555.451 869.669 562.415 865.637 567.748 859.843C576.84 851.64 584.56 842.027 590.612 831.371C610.717 801.397 635.79 775.091 664.746 753.592C693.581 731.652 720.261 707.003 744.422 679.98L776.293 644.563C796.572 623.917 819.949 606.577 845.576 593.174L868.44 579.979C876.934 574.099 884.184 566.592 889.773 557.892C895.362 549.191 899.178 539.469 901.003 529.284C906.12 506.664 905.504 483.12 899.211 460.8C892.918 438.48 881.148 418.095 864.976 401.505C858.597 393.412 850.499 386.844 841.271 382.279C832.043 377.714 821.917 375.267 811.627 375.116L804.699 377.894Z" fill="#139248"/>
<path d="M63.3623 2.19531H132.646C137.762 26.0983 145.427 49.3806 155.51 71.6405C167.981 98.0297 181.838 124.419 196.387 150.114C218.212 191.438 246.254 229.149 279.528 261.92C297.62 278.477 317.353 293.136 338.419 305.671C366.481 320.604 396.265 332.032 427.102 339.699C438.75 343.093 449.39 349.299 458.087 357.775C466.785 366.25 473.274 376.735 476.987 388.311C485.939 408.281 491.332 429.67 492.922 451.506C494.758 468.79 490.061 486.136 479.758 500.117C472.056 510.016 462.674 518.479 452.044 525.118L413.938 547.34L400.082 554.284C376.882 566.825 355.831 583.001 337.726 602.202L327.334 614.702L302.391 641.785C293.458 652.25 280.753 658.742 267.057 659.841C254.678 658.131 242.991 653.098 233.233 645.274C223.476 637.449 216.011 627.126 211.63 615.396C201.896 591.651 199.483 565.528 204.701 540.396L213.015 503.59L214.401 488.312C216.799 472.662 216.799 456.738 214.401 441.089C212.123 419.695 207.95 398.546 201.93 377.894V368.866C194.704 338.393 184.733 308.641 172.138 279.976C168.019 269.29 162.421 259.238 155.51 250.115C143.052 238.709 128.104 230.385 111.861 225.809C92.3365 220.994 72.3705 218.202 52.2769 217.475H25.2562C11.7844 217.54 -1.59024 215.188 -14.2355 210.531C-19.5023 208.351 -23.9465 204.557 -26.9329 199.693C-29.9194 194.828 -31.2952 189.142 -30.8636 183.447C-29.5515 172.747 -26.2622 162.385 -21.1639 152.891C-11.9706 137.432 -1.78762 122.586 9.32096 108.446C35.3133 77.7104 53.8148 41.3345 63.3623 2.19531M63.3623 2.19531C52.8142 39.4867 34.3832 74.0661 9.32096 103.585C-2.23922 117.542 -12.6651 132.404 -21.8567 148.03C-26.841 157.818 -30.1214 168.386 -31.5565 179.281C-32.7132 185.606 -31.6993 192.138 -28.68 197.812C-25.6607 203.487 -20.8137 207.97 -14.9284 210.531C-3.0601 215.65 9.5924 218.703 22.4849 219.559C51.3613 220.631 80.0983 224.115 108.397 229.976C124.226 234.197 138.753 242.313 150.66 253.587C158.657 261.672 165.218 271.066 170.059 281.365C183.493 312.847 194.382 345.359 202.623 378.588C208.279 399.292 212.219 420.429 214.401 441.783C216.835 456.964 216.835 472.437 214.401 487.617C210.244 505.673 205.394 523.729 201.93 541.09C197.04 566.7 199.441 593.173 208.858 617.48C213.136 629.982 220.884 641.002 231.193 649.244C241.502 657.486 253.944 662.608 267.057 664.008C281.472 662.824 294.875 656.107 304.47 645.258L339.805 605.674C357.602 586.424 378.433 570.236 401.467 557.757C418.788 548.034 436.802 539.007 453.43 528.59C464.527 521.76 474.37 513.068 482.529 502.895C492.797 488.106 497.464 470.13 495.693 452.2C493.867 429.955 488.487 408.15 479.758 387.616C475.839 375.732 469.041 365.008 459.972 356.403C450.904 347.798 439.848 341.582 427.795 338.31C397.14 330.443 367.583 318.779 339.805 303.587C318.976 291.285 299.473 276.856 281.606 260.531C248.039 227.068 219.769 188.662 197.773 146.641C183.223 120.947 170.059 95.2519 155.51 71.6405C145.887 49.3898 138.91 26.081 134.725 2.19531L63.3623 2.19531Z" fill="#139248"/>
<path d="M823.405 782.065C827.142 782.024 830.848 782.742 834.301 784.174C837.754 785.606 840.882 787.723 843.498 790.398C848.871 796.613 852.781 803.958 854.94 811.892C857.098 819.825 857.45 828.144 855.969 836.232C855.969 843.871 855.969 851.51 855.969 858.454V886.232C855.585 904.381 856.978 922.524 860.126 940.4C862.723 967.394 871.24 993.479 885.068 1016.79L889.225 1022.35C893.138 1028.22 896.39 1034.51 898.925 1041.1H653.66C659.203 1007.76 667.517 971.65 675.831 943.178L680.681 925.122C687.15 885.912 706.109 849.855 734.722 822.343C758.098 800.24 788.006 786.348 819.941 782.759H823.405M823.405 782.759H819.941C787.349 786.681 756.811 800.771 732.644 823.037C703.871 851.087 684.709 887.556 677.909 927.205C666.86 965.591 657.84 1004.53 650.889 1043.87H901.003C897.217 1033.6 891.84 1023.99 885.068 1015.4C871.757 992.162 863.494 966.367 860.819 939.705C857.689 922.061 856.297 904.15 856.662 886.232C856.662 869.566 856.662 852.899 860.126 836.232C861.688 827.767 861.315 819.057 859.034 810.758C856.754 802.458 852.627 794.785 846.962 788.315C844.042 785.421 840.58 783.133 836.775 781.584C832.97 780.035 828.898 779.254 824.791 779.287L823.405 782.759Z" fill="#139248"/>
<path d="M574.677 165.392C578.316 164.48 582.123 164.48 585.762 165.392C592.674 170.745 598.312 177.573 602.267 185.38C606.221 193.187 608.393 201.778 608.626 210.531C609.52 215.499 609.366 220.599 608.173 225.503C606.979 230.408 604.773 235.007 601.697 239.004C595.831 244.302 588.106 247.05 580.219 246.643C573.273 246.74 566.521 244.343 561.184 239.885C555.847 235.427 552.277 229.203 551.12 222.337C548.81 213.164 548.607 203.585 550.527 194.322C552.447 185.06 556.441 176.355 562.205 168.864C563.853 166.526 566.031 164.614 568.561 163.286C571.091 161.957 573.899 161.251 576.755 161.225M576.755 157.753C573.325 157.964 569.986 158.948 566.987 160.631C563.988 162.314 561.406 164.654 559.434 167.475C553.794 175.434 549.892 184.496 547.982 194.068C546.072 203.641 546.197 213.51 548.349 223.031C549.792 230.448 553.758 237.132 559.57 241.945C565.383 246.757 572.681 249.399 580.219 249.42C601.697 249.42 613.475 234.142 611.397 209.837C611.063 200.663 608.717 191.677 604.525 183.515C600.334 175.353 594.401 168.217 587.148 162.614C583.613 159.704 579.244 158.001 574.677 157.753H576.755Z" fill="#139248"/>
<path d="M246.964 298.032H254.585C268.629 302.537 281.936 309.089 294.077 317.476C318.326 333.449 343.269 349.421 363.361 365.394C379.729 375.328 394.651 387.479 407.703 401.505C415.242 407.361 421.39 414.821 425.703 423.348C430.016 431.875 432.387 441.255 432.645 450.811C432.505 457.992 430.824 465.058 427.716 471.529C424.607 478 420.144 483.724 414.631 488.312C402.351 501.172 388.08 511.959 372.368 520.256L363.361 525.118C344.654 535.534 325.948 546.646 307.934 559.146C301.057 563.99 293.883 568.397 286.456 572.34C283.02 572.965 279.499 572.965 276.063 572.34C266.364 572.34 260.821 564.701 260.128 551.507C259.524 542.952 259.524 534.366 260.128 525.812C265.71 497.614 265.71 468.592 260.128 440.394C260.128 427.894 253.2 414.7 249.735 402.894C246.271 391.088 241.421 374.421 238.65 360.532C234.635 345.834 232.768 330.629 233.107 315.393C233.107 302.198 238.65 295.254 248.35 295.254M248.35 295.254C237.264 295.254 231.029 302.893 230.336 318.171C230.123 333.629 231.987 349.045 235.879 364.005C241.421 391.088 251.121 416.783 257.357 443.867C262.901 471.834 262.901 500.622 257.357 528.59C256.671 537.141 256.671 545.733 257.357 554.284C257.357 569.562 264.978 577.896 276.063 577.896C279.946 578.721 283.959 578.721 287.842 577.896C295.386 574.16 302.575 569.744 309.32 564.701C330.105 550.118 352.275 538.312 374.446 525.812C390.596 515.862 404.897 503.173 416.709 488.312C426.586 478.581 432.3 465.382 432.645 451.506C432.881 442.298 431.287 433.136 427.957 424.552C424.626 415.968 419.625 408.133 413.245 401.505C400.096 387.584 385.19 375.444 368.904 365.394L294.077 316.782C281.644 308.292 268.128 301.518 253.892 296.643H245.578L248.35 295.254Z" fill="#139248"/>
<path d="M92.4613 116.085C98.6181 116.996 104.29 119.958 108.563 124.493C112.836 129.028 115.462 134.873 116.018 141.086C117.369 143.902 118.071 146.988 118.071 150.113C118.071 153.239 117.369 156.324 116.018 159.141C114.932 161.49 113.292 163.539 111.24 165.112C109.188 166.685 106.786 167.734 104.24 168.169H91.0756C85.1093 169.129 79.0282 169.129 73.0618 168.169C69.8333 167.135 67.0177 165.096 65.0241 162.349C63.0306 159.602 61.963 156.289 61.9764 152.891C61.9764 145.947 61.9764 143.863 71.6762 134.141C74.1819 131 77.3382 128.442 80.9268 126.644C84.5155 124.845 88.451 123.849 92.4613 123.724M92.4613 123.724C88.0856 123.864 83.7882 124.925 79.8489 126.839C75.9097 128.754 72.4168 131.478 69.5977 134.836C60.5908 144.558 59.2051 147.336 59.2051 155.669C59.2786 159.671 60.5824 163.552 62.9383 166.784C65.2943 170.015 68.5876 172.439 72.369 173.725C78.5637 174.736 84.8809 174.736 91.0756 173.725H104.932C108.163 173 111.175 171.513 113.716 169.386C116.258 167.259 118.255 164.555 119.543 161.497C120.831 158.44 121.371 155.119 121.12 151.81C120.868 148.501 119.832 145.301 118.096 142.474C116.314 136.938 112.921 132.062 108.353 128.473C103.785 124.885 98.2508 122.747 92.4613 122.335V123.724Z" fill="#139248"/>
<path d="M289.92 2.1953H374.447V10.5287C374.066 17.9313 374.066 25.3486 374.447 32.7512C376.021 45.1474 378.335 57.438 381.375 69.5571C381.375 79.9739 386.225 90.3907 388.303 101.502C390.376 112.049 390.376 122.9 388.303 133.447C388.128 136.818 387.233 140.112 385.679 143.107C384.125 146.102 381.949 148.728 379.297 150.808C376.738 153.425 373.252 154.923 369.597 154.975C366.946 153.248 364.796 150.853 363.361 148.03C355.018 139.971 348.824 129.942 345.347 118.863C345.347 111.919 339.805 105.669 337.726 98.7241C331.842 85.0048 324.892 71.7696 316.941 59.1404L310.013 45.2513C302.538 31.2767 295.831 16.9033 289.92 2.1953ZM285.763 2.1953C294.077 22.3344 304.47 41.0846 314.863 60.5293C325.255 79.9739 330.798 100.113 339.112 119.558C343.158 130.937 349.53 141.344 357.819 150.114C361.727 154.534 367.188 157.27 373.061 157.753C377.329 157.653 381.455 156.194 384.839 153.586C390.452 148.599 393.926 141.633 394.539 134.141C396.964 123.163 396.964 111.786 394.539 100.807C394.539 77.8906 384.146 55.6681 381.375 31.3623C381.375 20.9455 381.375 11.2232 377.911 0.806396L285.763 2.1953Z" fill="#139248"/>
<path d="M43.2701 383.449C47.3528 383.503 51.3513 384.62 54.8737 386.689C58.3961 388.759 61.3213 391.711 63.3624 395.255C66.1409 399.707 68.0238 404.662 68.9051 409.838C70.9912 424.812 70.9912 440.004 68.9051 454.978C68.9051 459.145 68.9051 463.311 68.9051 467.478C67.2324 486.886 67.2324 506.403 68.9051 525.812V539.007C68.9051 556.368 68.9051 575.118 68.9051 593.174C69.8805 611.326 67.2911 629.494 61.2839 646.647C57.1269 657.063 51.5842 662.619 42.5773 662.619H34.2632C24 659.175 14.3947 654.009 5.85687 647.341H1.69985L-79.3622 584.84C-89.6686 577.217 -98.7767 568.087 -106.383 557.757C-115.551 549.493 -121.121 537.955 -121.899 525.621C-122.676 513.287 -118.598 501.138 -110.54 491.784C-106.089 485.232 -100.448 479.578 -93.9118 475.117L-61.3484 450.811C-41.9489 436.922 -22.5495 422.339 -4.53568 407.061C6.8195 396.153 20.2506 387.651 34.9561 382.06C37.6991 381.499 40.5271 381.499 43.2701 382.06M43.2701 382.06H34.2632C18.9964 387.669 5.0715 396.422 -6.6142 407.755C-35.0205 432.061 -66.1983 452.894 -95.2975 477.2C-102.121 482.069 -108.19 487.919 -113.311 494.562C-121.431 504.552 -125.509 517.234 -124.739 530.096C-123.97 542.959 -118.407 555.062 -109.154 564.007C-100.823 573.357 -91.2676 581.533 -80.7479 588.313C-53.0343 609.146 -24.628 629.285 3.77837 649.424C12.8538 656.216 22.8969 661.6 33.5704 665.397H42.5773C47.6489 665.203 52.5122 663.324 56.4008 660.055C60.2894 656.786 62.9824 652.313 64.0553 647.341C70.0652 629.949 72.6534 611.554 71.6765 593.174C71.6765 570.257 71.6765 548.034 71.6765 523.729C70.2914 504.309 70.2914 484.814 71.6765 465.395C74.4434 446.282 74.4434 426.868 71.6765 407.755C70.5594 402.204 68.6947 396.831 66.1338 391.783C63.717 387.852 60.3609 384.587 56.3689 382.283C52.3769 379.98 47.8749 378.71 43.2701 378.588V382.06Z" fill="#139248"/>
<path d="M794.999 441.783H803.313C809.134 443.332 814.586 446.035 819.346 449.733C824.106 453.431 828.078 458.048 831.027 463.311C834.237 468.819 836.264 474.937 836.98 481.275C837.696 487.612 837.084 494.03 835.184 500.117C831.686 510.462 826.016 519.934 818.556 527.895C811.462 536.046 803.823 543.702 795.692 550.812L783.221 563.312C757.324 590.287 732.812 618.565 709.78 648.036C693.536 668.136 674.387 685.691 652.967 700.119C640.619 707.904 626.615 712.662 612.09 714.008C608.89 714.339 605.661 713.805 602.737 712.462C599.813 711.118 597.301 709.015 595.462 706.37C593.628 703.332 592.658 699.85 592.658 696.3C592.658 692.75 593.628 689.267 595.462 686.23C598.906 678.084 603.326 670.389 608.626 663.314C633.236 631.506 652.433 595.84 665.438 557.757C673.392 533.748 686.386 511.725 703.545 493.173C720.984 476.334 740.55 461.859 761.743 450.117C771.556 444.642 782.421 441.327 793.614 440.394M793.614 440.394C781.906 441.409 770.558 444.964 760.357 450.811C738.745 462.221 718.906 476.725 701.466 493.867C683.54 513.835 670.285 537.559 662.667 563.312C648.848 598.89 629.69 632.144 605.854 661.925C600.408 668.902 595.976 676.617 592.691 684.841C590.456 688.243 589.264 692.227 589.264 696.3C589.264 700.373 590.456 704.357 592.691 707.758C594.693 710.828 597.494 713.291 600.79 714.882C604.087 716.473 607.754 717.131 611.397 716.786C626.283 715.628 640.61 710.602 652.967 702.203C674.754 687.966 693.965 670.119 709.78 649.424C733.337 620.952 756.893 593.174 783.221 566.785C794.999 554.979 807.47 543.868 818.556 531.368C826.401 523.042 832.316 513.083 835.877 502.201C839.521 489.493 837.995 475.855 831.633 464.272C825.27 452.689 814.59 444.104 801.928 440.394H792.228H793.614Z" fill="#139248"/>
<path d="M-13.5424 509.84C-5.22838 509.84 -0.378513 517.479 2.39284 523.034C5.35056 529.075 6.77827 535.753 6.54986 542.479C6.54986 551.507 2.39285 561.229 -5.92121 561.229C-8.85496 562.138 -11.9944 562.138 -14.9281 561.229C-18.9624 559.252 -22.5111 556.407 -25.3207 552.896C-29.8463 548.13 -32.7558 542.054 -33.6347 535.534C-34.2356 532.789 -34.2356 529.946 -33.6347 527.201C-31.9545 523.404 -29.2462 520.155 -25.8173 517.823C-22.3884 515.491 -18.376 514.169 -14.2353 514.006M-14.2353 514.006C-18.8876 514.254 -23.3912 515.734 -27.2863 518.296C-31.1814 520.858 -34.3284 524.41 -36.4061 528.59C-37.2038 532.016 -37.2038 535.58 -36.4061 539.007C-35.431 546.046 -32.2813 552.603 -27.3992 557.757C-23.3942 561.982 -18.7103 565.503 -13.5424 568.174C-10.1427 569.121 -6.54958 569.121 -3.14986 568.174C6.54987 568.174 12.0926 557.757 12.0926 546.646C12.4889 539.38 10.8062 532.152 7.2427 525.812C6.02188 521.864 3.65726 518.37 0.449562 515.773C-2.75813 513.176 -6.66395 511.594 -10.7711 511.229L-14.2353 514.006Z" fill="#139248"/>
</g>
</g>
</g>
</svg>
