<svg width="59" height="58" viewBox="0 0 59 58" fill="none" xmlns="http://www.w3.org/2000/svg">
<rect x="0.5" y="10.5" width="47" height="47" rx="7.5" fill="#F6F8FC" stroke="#E6E9F1"/>
<path d="M20.5 25.75C18.967 25.75 17.687 26.82 17.346 28.25H15C14.586 28.25 14.25 28.586 14.25 29C14.25 29.414 14.586 29.75 15 29.75H17.346C17.687 31.18 18.967 32.25 20.5 32.25C22.292 32.25 23.75 30.792 23.75 29C23.75 27.208 22.292 25.75 20.5 25.75ZM20.5 30.75C19.535 30.75 18.75 29.965 18.75 29C18.75 28.035 19.535 27.25 20.5 27.25C21.465 27.25 22.25 28.035 22.25 29C22.25 29.965 21.465 30.75 20.5 30.75ZM26.25 29C26.25 28.586 26.586 28.25 27 28.25H33C33.414 28.25 33.75 28.586 33.75 29C33.75 29.414 33.414 29.75 33 29.75H27C26.586 29.75 26.25 29.414 26.25 29ZM33 38.25H30.654C30.313 36.82 29.033 35.75 27.5 35.75C25.708 35.75 24.25 37.208 24.25 39C24.25 40.792 25.708 42.25 27.5 42.25C29.033 42.25 30.313 41.18 30.654 39.75H33C33.414 39.75 33.75 39.414 33.75 39C33.75 38.586 33.414 38.25 33 38.25ZM27.5 40.75C26.535 40.75 25.75 39.965 25.75 39C25.75 38.035 26.535 37.25 27.5 37.25C28.465 37.25 29.25 38.035 29.25 39C29.25 39.965 28.465 40.75 27.5 40.75ZM21.75 39C21.75 39.414 21.414 39.75 21 39.75H15C14.586 39.75 14.25 39.414 14.25 39C14.25 38.586 14.586 38.25 15 38.25H21C21.414 38.25 21.75 38.586 21.75 39Z" fill="#92929D"/>
<circle cx="48" cy="11" r="11" fill="#FE0102"/>
<path d="M44.84 8.426C44.9053 7.56733 45.2367 6.89533 45.834 6.41C46.4313 5.92467 47.206 5.682 48.158 5.682C48.7927 5.682 49.3387 5.79867 49.796 6.032C50.2627 6.256 50.6127 6.564 50.846 6.956C51.0887 7.348 51.21 7.79133 51.21 8.286C51.21 8.86467 51.042 9.364 50.706 9.784C50.3793 10.204 49.95 10.4747 49.418 10.596V10.666C50.0247 10.8153 50.5053 11.1093 50.86 11.548C51.2147 11.9867 51.392 12.5607 51.392 13.27C51.392 13.802 51.2707 14.2827 51.028 14.712C50.7853 15.132 50.4213 15.4633 49.936 15.706C49.4507 15.9487 48.8673 16.07 48.186 16.07C47.1967 16.07 46.3847 15.8133 45.75 15.3C45.1153 14.7773 44.7607 14.04 44.686 13.088H45.918C45.9833 13.648 46.212 14.1053 46.604 14.46C46.996 14.8147 47.5187 14.992 48.172 14.992C48.8253 14.992 49.32 14.824 49.656 14.488C50.0013 14.1427 50.174 13.6993 50.174 13.158C50.174 12.458 49.9407 11.954 49.474 11.646C49.0073 11.338 48.3027 11.184 47.36 11.184H47.038V10.12H47.374C48.2327 10.1107 48.8813 9.97067 49.32 9.7C49.7587 9.42 49.978 8.99067 49.978 8.412C49.978 7.91733 49.8147 7.52067 49.488 7.222C49.1707 6.92333 48.7133 6.774 48.116 6.774C47.5373 6.774 47.0707 6.92333 46.716 7.222C46.3613 7.52067 46.1513 7.922 46.086 8.426H44.84Z" fill="white"/>
</svg>
