<svg width="18" height="18" viewBox="0 0 18 18" fill="none" xmlns="http://www.w3.org/2000/svg">
<mask id="mask0_1_268" style="mask-type:alpha" maskUnits="userSpaceOnUse" x="0" y="0" width="18" height="18">
<circle cx="9" cy="9" r="9" fill="#199D00"/>
</mask>
<g mask="url(#mask0_1_268)">
<path d="M21 0H-3V18H21V0Z" fill="#012169"/>
<path d="M18.1875 0L9.0375 6.7875L-0.0750008 0H-3V2.325L6 9.0375L-3 15.7125V18H0L9 11.2875L17.9625 18H21V15.75L12.0375 9.075L21 2.4V0H18.1875Z" fill="white"/>
<path d="M5.1 10.5375L-3 16.5V18L7.1625 10.5375H5.1ZM12 11.2875L11.775 12.6L18.975 18H21L12 11.2875ZM-3 0V0.1125L6.3375 7.1625L6.2625 5.5125L-1.125 0H-3ZM21 0L12.0375 6.6H14.2875L21 1.575V0Z" fill="#C8102E"/>
<path d="M11.9625 0V18H5.9625V0H11.9625ZM21 6V12H-3V6H21Z" fill="white"/>
<path d="M21 7.2375V10.8375H-3V7.2375H21ZM10.7625 0V18H7.1625V0H10.7625Z" fill="#C8102E"/>
</g>
</svg>
